<?xml version="1.0" encoding="UTF-8"?>
<svg id="Layer_1" xmlns="http://www.w3.org/2000/svg" version="1.1" xmlns:xlink="http://www.w3.org/1999/xlink" viewBox="0 0 5000 2916">
  <!-- Generator: Adobe Illustrator 29.5.1, SVG Export Plug-In . SVG Version: 2.1.0 Build 141)  -->
  <defs>
    <style>
      .st0 {
        fill: none;
      }

      .st1 {
        fill: url(#linear-gradient);
      }

      .st2 {
        clip-path: url(#clippath);
      }
    </style>
    <clipPath id="clippath">
      <path class="st0" d="M4125.9,2778.3l-.8-2.4.6,1.9.8,2.6-.6-2.2ZM4108,2721.6l-.8-2.2.7,2.2.7,2.2-.7-2.2ZM4118,2749.7l-3.8-10.8,3.2,10.8c1.2,3.7,2.5,7.4,3.7,11l-3-11ZM4089.1,2665.4l-.9-2.2.7,2.2.8,2.3-.7-2.2ZM4099.6,2693.3c-1.4-3.7-2.7-7.3-4.1-11l3.5,10.9c1.3,3.6,2.6,7.2,3.9,10.8l-3.2-10.8ZM4110.1,2721.2l-5.7-15.1,4.5,15.2c1.8,5.1,3.6,10.2,5.4,15.3-1.4-5.1-2.8-10.2-4.2-15.3ZM4069.1,2609.6l-.9-2.2.7,2,.9,2.4-.7-2.1ZM4080.1,2637.2l-4.3-10.7c1.2,3.6,2.4,7.1,3.6,10.7l4.1,10.9-3.5-10.9ZM4091.2,2665c-2-5-4-10-6-15.1l4.8,15.2c1.9,5,3.8,10.1,5.7,15.1-1.5-5-3-10.1-4.5-15.2ZM4102.3,2692.7l-7-17.6,5.3,17.8c2.2,5.9,4.5,11.8,6.7,17.8-1.7-6-3.3-12-5-18ZM4047.9,2554l-.9-2.2.8,2.2.9,2.1-.8-2.2ZM4059.6,2581.6c-1.5-3.6-3-7.1-4.5-10.7l3.8,10.7c1.4,3.6,2.9,7.1,4.3,10.7l-3.6-10.6ZM4071.2,2609.1l-6.3-14.9,5.1,15,6,15-4.8-15.1ZM4082.8,2636.7c-2.5-5.9-4.9-11.7-7.4-17.6l5.6,17.8c2.3,5.9,4.7,11.7,7,17.6l-5.3-17.7ZM4094.4,2664.3l-8.1-19.2,5.8,19.5c2.6,6.5,5.1,12.9,7.7,19.3l-5.4-19.6ZM4025.8,2498.8l-1-2.3.8,1.9,1,2.4-.8-2.1ZM4037.9,2526.2l-4.7-10.6,4.1,10.6,4.5,10.7-3.9-10.8ZM4050.1,2553.5l-6.6-14.8,5.4,14.9c2.1,5,4.2,10,6.3,15l-5.1-15ZM4062.3,2581l-7.7-17.4c2,5.9,4,11.7,6,17.6l7.4,17.5-5.6-17.7ZM4074.4,2608.4c-2.8-6.4-5.6-12.7-8.4-19.1l6.2,19.4c2.7,6.4,5.4,12.8,8.1,19.2l-5.8-19.5ZM4086.6,2635.9c-3-6.8-6-13.5-9-20.3l6.2,20.8c2.9,6.8,5.7,13.6,8.6,20.4l-5.8-20.9ZM4002.5,2444l-1-2.1.8,1.9,1,2.2-.8-2ZM4015.2,2471.2l-4.9-10.5,4.2,10.4,4.7,10.6-4-10.5ZM4027.9,2498.4l-6.9-14.7,5.6,14.8,6.6,14.8-5.3-14.9ZM4040.6,2525.6l-8.1-17.3,6.3,17.4,7.7,17.4-5.9-17.5ZM4053.4,2552.9c-2.9-6.3-5.9-12.6-8.8-19l6.5,19.2,8.5,19.1-6.1-19.3ZM4066,2580.2c-3.1-6.7-6.3-13.5-9.4-20.2l6.5,20.6c3,6.8,6,13.5,9,20.3l-6.1-20.7ZM4078.7,2607.6c-3.3-7-6.5-14.1-9.8-21.1l6.4,21.6c3.1,7.1,6.3,14.2,9.4,21.2l-6-21.7ZM3978.2,2389.5l-1-2,.8,1.8,1,2.2-.8-1.9ZM3991.5,2416.5l-5.1-10.5,4.4,10.3,4.9,10.6-4.2-10.4ZM4004.7,2443.6l-7.2-14.7,5.9,14.6,6.9,14.8-5.6-14.7ZM4018,2470.6l-8.4-17.2,6.6,17.3,8.1,17.3-6.3-17.4ZM4031.2,2497.7l-9.2-18.8,6.9,19.1,8.8,19-6.5-19.2ZM4044.4,2524.9c-3.3-6.7-6.5-13.4-9.8-20.1l6.9,20.4c3.1,6.7,6.3,13.5,9.4,20.2l-6.5-20.5ZM4057.7,2552.1c-3.4-7-6.8-14-10.2-21l6.8,21.5c3.3,7,6.5,14.1,9.8,21.1l-6.4-21.6ZM4070.9,2579.3c-3.5-7.2-7-14.5-10.6-21.7l6.6,22.3c3.4,7.3,6.8,14.6,10.1,21.8l-6.2-22.4ZM3952.9,2335.4l-1-2,.8,1.8,1,2.1-.8-1.9ZM3966.7,2362.2l-5.3-10.3,4.6,10.2,5.1,10.4-4.4-10.3ZM3980.4,2389.1l-7.4-14.5,6.2,14.5,7.2,14.6-5.9-14.6ZM3994.2,2416l-8.7-17,6.9,17.2,8.4,17.1-6.6-17.3ZM4008,2442.9l-9.6-18.7,7.2,19,9.2,18.8-6.9-19.1ZM4021.7,2469.9c-3.4-6.6-6.8-13.3-10.2-19.9l7.3,20.3,9.8,20-6.9-20.4ZM4035.5,2496.9c-3.5-6.9-7.1-13.9-10.6-20.8l7.2,21.3c3.4,7,6.8,14,10.2,21l-6.8-21.4ZM4049.3,2523.9c-3.7-7.2-7.3-14.4-11-21.6l7,22.1c3.5,7.2,7,14.5,10.6,21.7l-6.6-22.3ZM4063.1,2551c-3.8-7.4-7.5-14.8-11.3-22.2l6.8,22.8c3.6,7.4,7.2,14.9,10.8,22.3l-6.4-23ZM3926.5,2281.5l-1-1.9.8,1.6,1,2-.8-1.8ZM3940.8,2308.2l-5.5-10.2,4.7,10.1,5.3,10.3-4.6-10.2ZM3955.1,2334.9l-7.7-14.4,6.4,14.4,7.4,14.5-6.2-14.5ZM3969.4,2361.6l-9-16.9,7.2,17,8.7,17-6.9-17.1ZM3983.7,2388.4l-9.9-18.6,7.6,18.8,9.6,18.7-7.2-18.9ZM3998,2415.2l-10.6-19.8,7.7,20.1,10.2,19.9-7-19.5-.3-.8ZM4012.3,2442c-3.7-6.9-7.4-13.8-11-20.7l7.6,21.2,10.6,20.8-6.1-18-1.1-3.3ZM4026.6,2468.9c-3.8-7.1-7.6-14.3-11.4-21.4l7.5,22c3.7,7.2,7.3,14.4,11,21.5l-5.2-16.3-1.8-5.8ZM4040.9,2495.8c-3.9-7.3-7.8-14.7-11.7-22l.2.6,7,22.1c3.8,7.4,7.5,14.8,11.3,22.1l-4.3-14.5-2.5-8.3ZM4055.2,2522.8c-4-7.5-8-15-11.9-22.5l1.1,3.6,5.9,19.7c3.8,7.5,7.7,15.1,11.5,22.6l-3.5-12.6-3-10.8ZM3899,2228l-1-1.8.8,1.6,1,1.9-.8-1.7ZM3913.8,2254.5l-5.7-10.1,4.9,10,5.5,10.3-4.7-10.1ZM3928.6,2281.1l-8-14.3,1.2,2.6,5.5,11.7,7.7,14.4-6.4-14.4ZM3943.5,2307.6l-9.4-16.8,3.4,7.7,4.1,9.2,9.1,16.9-7.2-17ZM3958.3,2334.2l-10.3-18.5,5.1,12,2.8,6.7,9.9,18.6-7.6-18.8ZM3973.2,2360.9l-11-19.7,6.4,15.8,1.7,4.2,10.6,19.8-7.7-20.1ZM3988,2387.5c-3.8-6.8-7.6-13.7-11.5-20.6l7.4,19.4.6,1.7c3.7,6.9,7.4,13.8,11.1,20.7l-7.6-21.2ZM4002.9,2414.2c-3.9-7.1-7.9-14.2-11.8-21.3l7.9,21.9c3.8,7.1,7.6,14.3,11.4,21.4l-7.5-22ZM4017.7,2441c-4-7.3-8.1-14.6-12.1-21.9l7.6,22.6c3.9,7.3,7.8,14.7,11.7,22l-7.2-22.7ZM4032.6,2467.7c-4.1-7.4-8.3-14.9-12.4-22.3l7.4,23.1c4,7.5,8,15,12,22.5l-6.9-23.3ZM4047.4,2494.5c-4.2-7.6-8.4-15.2-12.6-22.8l7,23.7c4.1,7.6,8.1,15.3,12.2,22.9l-6.6-23.8ZM3870.4,2174.8l-1-1.7.8,1.6,1,1.8-.8-1.6ZM3885.8,2201.2l-5.8-10,5.1,9.9,5.7,10.1-4.9-10ZM3901.2,2227.5l-8.3-14.2,7,14.2,8,14.3-6.7-14.3ZM3916.5,2254l-9.7-16.7,7.9,16.8,9.4,16.8-7.5-16.9ZM3931.9,2280.4l-10.7-18.3,8.3,18.6,10.3,18.5-7.9-18.7ZM3947.3,2306.9l-11.4-19.5,8.4,19.9,11,19.7-8.1-20ZM3962.7,2333.4l-11.9-20.5,8.4,20.9,11.5,20.6-8-21ZM3978.1,2359.9c-4.1-7-8.2-14.1-12.3-21.2l8.3,21.7c4,7.1,7.9,14.2,11.9,21.3l-7.9-21.8ZM3993.5,2386.4c-4.2-7.2-8.4-14.5-12.6-21.7l8.1,22.4c4.1,7.3,8.1,14.6,12.2,21.8l-7.6-22.5ZM4008.8,2413c-4.3-7.4-8.6-14.8-12.8-22.2l7.8,23c4.1,7.5,8.3,14.9,12.4,22.3l-7.4-23.1ZM4024.2,2439.7c-4.3-7.5-8.7-15.1-13.1-22.6l7.5,23.5c4.2,7.6,8.4,15.2,12.6,22.7l-7-23.6ZM4039.6,2466.3c-4.4-7.6-8.8-15.3-13.2-23l7.1,23.9c4.3,7.7,8.5,15.4,12.8,23.1l-6.7-24.1ZM3840.9,2121.9l-1-1.7.8,1.4,1.1,1.9-.8-1.5ZM3856.8,2148.1l-6-9.9,5.2,9.8,5.8,10-5.1-9.9ZM3872.7,2174.4l-8.5-14,7.2,14,8.3,14.2-6.9-14.1ZM3888.5,2200.6l-10-16.5,8.2,16.6,9.7,16.7-7.9-16.8ZM3904.4,2226.9l-11-18.2,8.6,18.4,10.7,18.3-8.3-18.5ZM3920.4,2253.2l-11.7-19.4,8.8,19.7,11.4,19.5-8.4-19.8ZM3936.3,2279.5l-12.3-20.3,8.8,20.7,11.9,20.4-8.4-20.9ZM3952.2,2305.9c-4.2-7-8.5-14-12.7-21l8.7,21.6,12.3,21.1-8.3-21.7ZM3968.1,2332.3c-4.3-7.2-8.7-14.4-13-21.6l8.5,22.2c4.2,7.2,8.4,14.5,12.6,21.7l-8.1-22.4ZM3984,2358.7c-4.4-7.3-8.9-14.7-13.3-22.1l8.2,22.8c4.3,7.4,8.6,14.8,12.8,22.2l-7.8-23ZM4000,2385.1c-4.5-7.5-9-15-13.5-22.4l7.9,23.3c4.4,7.5,8.7,15.1,13.1,22.6l-7.5-23.5ZM4015.9,2411.6c-4.6-7.6-9.1-15.2-13.7-22.8l7.6,23.8c4.4,7.6,8.8,15.3,13.2,22.9l-7.1-23.9ZM4031.8,2438.2c-4.6-7.7-9.2-15.4-13.9-23.1l7.2,24.2c4.5,7.8,8.9,15.5,13.4,23.2-2.3-8.1-4.5-16.2-6.7-24.3ZM3810.3,2069.4l-1-1.5.7,1.3,1,1.7-.8-1.4ZM3826.7,2095.4l-6.2-9.8,5.4,9.6,6,9.9-5.2-9.8ZM3843.1,2121.5l-8.8-13.9,7.4,13.9,8.5,14-7.2-14ZM3859.5,2147.6l-10.3-16.4,8.5,16.5,10,16.5-8.1-16.6ZM3875.9,2173.7l-11.4-18.1,9,18.3,11,18.2-8.6-18.4ZM3892.4,2199.8l-12.1-19.3,9.2,19.6,11.7,19.4-8.8-19.7ZM3908.8,2226l-12.7-20.2,9.2,20.6,12.3,20.3-8.8-20.7ZM3925.3,2252.2c-4.4-6.9-8.7-13.9-13.1-20.9l9.1,21.4,12.7,21-8.7-21.5ZM3941.7,2278.4l-13.5-21.4,8.9,22.1c4.3,7.2,8.7,14.4,13,21.6l-8.5-22.2ZM3958.2,2304.7l-13.7-21.9,8.6,22.7c4.4,7.4,8.9,14.7,13.3,22l-8.2-22.8ZM3974.6,2330.9c-4.6-7.4-9.3-14.9-14-22.3l8.3,23.2c4.5,7.5,9,15,13.5,22.4l-7.9-23.3ZM3991.1,2357.3c-4.7-7.5-9.4-15.1-14.2-22.6l8,23.6c4.6,7.6,9.1,15.2,13.7,22.8l-7.6-23.8ZM4007.6,2383.6c-4.8-7.6-9.5-15.3-14.3-22.9l7.6,24.1c4.6,7.7,9.3,15.4,13.9,23.1l-7.2-24.2ZM4024,2410c-4.8-7.7-9.6-15.5-14.5-23.2l7.3,24.4c4.7,7.8,9.3,15.6,14,23.3-2.3-8.1-4.5-16.4-6.8-24.5ZM3812.5,2068.9l-9-13.8,7.7,13.7,8.8,14-7.4-13.9ZM3829.4,2094.9l-10.6-16.3,8.8,16.3,10.3,16.4-8.5-16.5ZM3846.4,2120.8l-11.7-17.9,9.3,18.1,11.4,18.1-9-18.3ZM3863.3,2146.8l-12.5-19.1,9.5,19.4,12.1,19.2-9.2-19.6ZM3880.3,2172.8l-13.1-20,9.6,20.5,12.7,20.1-9.2-20.6ZM3897.3,2198.8l-13.5-20.7,9.5,21.3,13.1,20.9-9.1-21.4ZM3914.3,2224.9l-13.9-21.3,9.3,21.9,13.5,21.4-8.9-22.1ZM3931.3,2251c-4.7-7.2-9.4-14.5-14.2-21.8l9.1,22.5c4.6,7.3,9.2,14.6,13.7,21.9l-8.6-22.7ZM3948.3,2277.1c-4.8-7.4-9.6-14.8-14.4-22.2l8.8,23c4.7,7.4,9.3,14.9,14,22.3l-8.3-23.2ZM3965.3,2303.2c-4.9-7.5-9.7-15-14.6-22.5l8.5,23.5c4.7,7.5,9.5,15.1,14.2,22.6l-8-23.6ZM3982.3,2329.4c-4.9-7.6-9.9-15.2-14.8-22.8l8.1,23.9c4.8,7.6,9.6,15.3,14.3,22.9l-7.6-24ZM3999.3,2355.6c-5-7.7-10-15.4-14.9-23.1l7.7,24.3c4.8,7.7,9.7,15.5,14.5,23.2l-7.2-24.4ZM4016.3,2381.9c-5-7.8-10.1-15.5-15.1-23.3l7.3,24.6c4.9,7.8,9.8,15.6,14.6,23.4l-6.8-24.7ZM3778.7,2017.2l-1-1.5.7,1.2,1,1.6-.8-1.4ZM3791.9,2037.4l-2.6-4,5.5,9.5,6.2,9.8-5.4-9.7-3.7-5.7ZM3798.3,2042.5l-11-16.2,9,16.2,10.6,16.3-8.7-16.3ZM3815.8,2068.3l-12-17.8,9.6,18,11.7,17.9-9.3-18.1ZM3833.3,2094.1l-12.9-19,9.9,19.3,12.5,19.1-9.5-19.4ZM3850.8,2119.9l-13.5-19.9,9.9,20.3,13.1,20-9.6-20.4ZM3868.3,2145.8l-13.9-20.6,9.9,21.1,13.5,20.7-9.5-21.2ZM3885.8,2171.7l-14.3-21.2,9.7,21.8,13.9,21.3-9.3-21.9ZM3903.3,2197.6l-14.6-21.6,9.5,22.4,14.2,21.7-9-22.5ZM3920.8,2223.6c-4.9-7.3-9.9-14.7-14.9-22l9.2,22.9c4.8,7.4,9.6,14.8,14.4,22.1l-8.8-23ZM3938.4,2249.5c-5-7.4-10-14.9-15.1-22.3l8.9,23.3c4.9,7.5,9.8,15,14.6,22.5l-8.4-23.5ZM3955.9,2275.6c-5.1-7.5-10.2-15.1-15.3-22.6l8.5,23.7c4.9,7.6,9.9,15.2,14.8,22.8l-8.1-23.9ZM3973.4,2301.6c-5.1-7.6-10.3-15.3-15.4-22.9l8.2,24.1c5,7.7,10,15.4,15,23l-7.7-24.2ZM3991,2327.7c-5.2-7.7-10.4-15.4-15.6-23.1l7.8,24.4c5,7.8,10.1,15.5,15.1,23.3-2.4-8.2-4.9-16.4-7.3-24.6ZM4008.5,2353.8c-5.2-7.8-10.4-15.6-15.7-23.4l7.3,24.8c5.1,7.8,10.2,15.7,15.2,23.5-2.3-8.3-4.6-16.6-6.9-24.9ZM3746,1965.2l-.9-1.3.6.9,1,1.5-.7-1.1ZM3763.4,1991l-6.5-9.6,5.7,9.4,6.3,9.7-5.5-9.5ZM3775.3,2008.5l-3.7-5.4,7.9,13.6,9,13.8-7.6-13.7-5.6-8.2ZM3784.2,2016l-12.4-17.7,10,17.8,12.1,17.8-9.6-18ZM3802.2,2041.7l-13.2-18.9c3.4,6.4,6.8,12.8,10.3,19.1l12.8,19-9.9-19.3ZM3820.2,2067.4l-13.9-19.7,10.3,20.1,13.5,19.9-9.9-20.3ZM3838.2,2093.1l-14.3-20.4,10.3,21,13.9,20.6-9.9-21.1ZM3856.2,2118.8l-14.7-21,10.1,21.6,14.3,21.1c-3.2-7.3-6.5-14.5-9.7-21.8ZM3874.3,2144.6l-15-21.5c3.3,7.4,6.6,14.8,9.9,22.2l14.6,21.6-9.5-22.3ZM3892.3,2170.3c-5.1-7.3-10.2-14.6-15.3-21.9l9.6,22.7c5,7.3,9.9,14.7,14.9,22l-9.2-22.9ZM3910.4,2196.2l-15.5-22.2,9.3,23.2c5,7.5,10.1,14.9,15.1,22.3l-8.9-23.3ZM3928.5,2222c-5.2-7.5-10.5-15-15.7-22.5,3,7.9,6,15.7,9,23.6,5.1,7.6,10.2,15.1,15.3,22.6-2.8-7.9-5.7-15.8-8.5-23.7ZM3946.5,2247.9c-5.3-7.6-10.6-15.2-15.9-22.8l8.6,23.9c5.2,7.6,10.3,15.3,15.4,22.9l-8.1-24.1ZM3964.6,2273.8c-5.3-7.6-10.7-15.3-16-23l8.2,24.3c5.2,7.7,10.4,15.4,15.6,23.1-2.6-8.1-5.2-16.3-7.7-24.4ZM3982.7,2299.7c-5.4-7.7-10.8-15.4-16.2-23.2l7.8,24.6c5.2,7.8,10.5,15.6,15.7,23.3-2.4-8.2-4.9-16.5-7.3-24.7ZM4000.8,2325.7c-5.4-7.8-10.8-15.6-16.3-23.4,2.5,8.3,4.9,16.6,7.4,24.9,5.3,7.8,10.5,15.7,15.8,23.5-2.3-8.3-4.6-16.7-6.9-25ZM3712.3,1913.6l-.9-1.2.6,1,.9,1.4-.7-1.1ZM3730.2,1939.2l-6.6-9.5,5.8,9.2,6.5,9.6-5.7-9.4ZM3748.2,1964.8l-9.5-13.5,8.1,13.4,9.3,13.7-7.9-13.6ZM3758.6,1979.6l-3.7-5.2,9.3,16,10.9,16.2-9-16.2-7.6-10.8ZM3770,1989.6l-13.6-18.7c3.5,6.3,7.1,12.7,10.6,19l13.2,18.9-10.2-19.1ZM3788.6,2015.1l-14.2-19.6,10.7,20,13.8,19.7c-3.4-6.7-6.9-13.4-10.3-20.1ZM3807.1,2040.7l-14.7-20.3,10.7,20.8,14.3,20.4-10.3-20.9ZM3825.7,2066.2l-15.2-20.9,10.5,21.5,14.7,21-10.1-21.6ZM3844.2,2091.8l-15.5-21.3,10.3,22.1,15,21.5-9.9-22.2ZM3862.8,2117.5c-5.2-7.2-10.5-14.5-15.7-21.7l10,22.6,15.3,21.9-9.6-22.7ZM3881.4,2143.1c-5.3-7.3-10.7-14.7-16-22.1,3.2,7.7,6.5,15.4,9.7,23,5.2,7.4,10.4,14.8,15.5,22.2-3.1-7.7-6.2-15.4-9.3-23.2ZM3900,2168.8c-5.4-7.4-10.8-14.9-16.2-22.3,3.1,7.8,6.3,15.6,9.4,23.4,5.3,7.5,10.5,15,15.7,22.5l-9-23.6ZM3918.6,2194.5c-5.4-7.5-10.9-15.1-16.4-22.6,3,7.9,6,15.9,9,23.8,5.3,7.6,10.6,15.2,15.9,22.7l-8.6-23.9ZM3937.2,2220.2c-5.5-7.6-11-15.2-16.5-22.8,2.9,8.1,5.8,16.1,8.7,24.1,5.4,7.7,10.7,15.3,16,23-2.7-8.1-5.5-16.2-8.2-24.3ZM3955.8,2246c-5.5-7.7-11.1-15.3-16.6-23,2.8,8.2,5.5,16.3,8.3,24.5,5.4,7.7,10.8,15.4,16.2,23.2l-7.8-24.6ZM3974.4,2271.8c-5.6-7.7-11.2-15.5-16.7-23.2l7.8,24.8c5.4,7.8,10.9,15.6,16.3,23.3-2.5-8.3-4.9-16.6-7.4-24.9ZM3993.1,2297.7c-5.6-7.8-11.2-15.6-16.9-23.4l7.4,25c5.5,7.9,10.9,15.7,16.4,23.5-2.3-8.4-4.6-16.8-6.9-25.1ZM3677.6,1862.3l-.8-1.1.5.8.9,1.2-.6-.9ZM3696,1887.7l-6.7-9.3,6,9.2,6.6,9.4-5.8-9.3ZM3714.5,1913.2l-9.7-13.4,8.4,13.3,9.5,13.5-8.1-13.4ZM3733,1938.6l-11.6-15.9c3.2,5.3,6.4,10.6,9.6,15.9l11.2,16c-3.1-5.3-6.2-10.7-9.3-16ZM3741.8,1950.7l-3-4.2,10.3,17.7,10.4,14.8,2,2.9-9.9-17.8-9.7-13.4ZM3755.9,1963.2l-14.6-19.5c3.7,6.6,7.4,13.2,11.1,19.9l14.2,19.6c-3.6-6.6-7.1-13.3-10.7-20ZM3775,1988.6l-15.1-20.2,11,20.7,14.7,20.3-10.6-20.8ZM3794.1,2014l-15.6-20.7c3.6,7.1,7.3,14.2,10.9,21.3l15.2,20.9c-3.5-7.2-7-14.3-10.5-21.5ZM3813.2,2039.4l-15.9-21.2,10.7,21.9,15.5,21.3c-3.4-7.3-6.9-14.7-10.3-22ZM3832.3,2064.9l-16.2-21.6c3.5,7.5,7,15,10.5,22.4l15.7,21.7c-3.3-7.5-6.7-15-10-22.5ZM3851.4,2090.4l-16.4-21.9c3.4,7.6,6.8,15.3,10.2,22.9l16,22c-3.2-7.7-6.5-15.3-9.7-23ZM3870.5,2115.9c-5.5-7.4-11.1-14.8-16.6-22.2,3.3,7.8,6.6,15.5,9.8,23.3l16.2,22.3c-3.1-7.8-6.3-15.6-9.4-23.4ZM3889.6,2141.4l-16.8-22.5,9.5,23.6c5.5,7.5,10.9,15.1,16.4,22.6-3-7.9-6-15.8-9-23.8ZM3908.8,2167c-5.6-7.6-11.3-15.1-17-22.7,3,8,6.1,16,9.1,24,5.5,7.6,11,15.2,16.5,22.8l-8.6-24.1ZM3927.9,2192.6c-5.7-7.6-11.4-15.2-17.1-22.9,2.9,8.1,5.8,16.2,8.7,24.3,5.6,7.7,11.1,15.3,16.6,23-2.7-8.1-5.5-16.3-8.2-24.4ZM3947,2218.2c-5.7-7.7-11.5-15.4-17.2-23.1l8.3,24.6c5.6,7.7,11.2,15.5,16.7,23.2-2.6-8.2-5.2-16.5-7.8-24.7ZM3966.2,2243.9c-5.8-7.7-11.5-15.5-17.3-23.2l7.9,24.9c5.6,7.8,11.2,15.6,16.8,23.4-2.5-8.3-4.9-16.7-7.4-25ZM3985.3,2269.6c-5.8-7.8-11.6-15.6-17.4-23.4,2.5,8.4,5,16.8,7.4,25.1,5.7,7.9,11.3,15.7,17,23.6-2.3-8.4-4.6-16.8-7-25.3ZM3641.8,1811.3l-.7-1,.5.8.8,1.1-.6-.9ZM3660.8,1836.6l-6.9-9.2,6.1,9,6.8,9.3-5.9-9.1ZM3679.8,1861.9l-10-13.3,8.6,13.2,9.7,13.4-8.4-13.3ZM3698.8,1887.2l-11.8-15.7,9.9,15.7,11.6,15.9-9.6-15.9ZM3717.8,1912.5l-13.1-17.4,10.6,17.5,12.7,17.5c-3.4-5.9-6.8-11.8-10.3-17.7ZM3724.9,1921.9l-2-2.7,10.9,18.8,8.8,12.1,4.8,6.6-10.6-19-11.9-15.9ZM3741.8,1936.8l-15.5-20,11.4,20.5,15.1,20.2c-3.7-6.9-7.3-13.8-11-20.6ZM3761.4,1962.1l-16-20.6c3.8,7.1,7.6,14.1,11.3,21.2l15.5,20.7c-3.6-7.1-7.3-14.2-10.9-21.3ZM3781,1987.3l-16.3-21c3.7,7.3,7.4,14.5,11.1,21.8l15.9,21.2c-3.6-7.3-7.1-14.6-10.7-21.9ZM3800.7,2012.6l-16.6-21.4c3.6,7.4,7.3,14.8,10.9,22.3l16.2,21.6c-3.5-7.5-7-14.9-10.5-22.4ZM3820.3,2038l-16.9-21.8c3.5,7.6,7.1,15.2,10.6,22.7l16.4,21.9c-3.4-7.6-6.8-15.2-10.1-22.8ZM3839.9,2063.3l-17.1-22c3.4,7.7,6.9,15.4,10.3,23.1l16.6,22.2c-3.3-7.7-6.5-15.5-9.8-23.3ZM3859.6,2088.7l-17.3-22.3c3.3,7.8,6.6,15.7,9.9,23.5l16.8,22.4c-3.2-7.9-6.3-15.7-9.5-23.6ZM3879.3,2114.1c-5.8-7.5-11.6-15-17.4-22.5,3.2,8,6.4,15.9,9.6,23.8,5.7,7.6,11.3,15.1,17,22.7-3-8-6.1-16-9.1-24ZM3898.9,2139.5c-5.8-7.6-11.7-15.1-17.6-22.7,3.1,8.1,6.1,16.1,9.2,24.1,5.7,7.6,11.4,15.2,17.1,22.9-2.9-8.1-5.8-16.2-8.7-24.3ZM3918.6,2165c-5.9-7.6-11.8-15.3-17.7-22.9,2.9,8.2,5.8,16.3,8.7,24.4,5.7,7.7,11.5,15.4,17.2,23-2.8-8.2-5.5-16.4-8.3-24.6ZM3938.3,2190.5c-5.9-7.7-11.9-15.4-17.8-23.1,2.8,8.2,5.5,16.5,8.3,24.7,5.8,7.7,11.6,15.5,17.3,23.2-2.6-8.3-5.2-16.6-7.8-24.9ZM3958,2216c-6-7.7-11.9-15.5-17.9-23.2,2.6,8.3,5.3,16.7,7.9,25,5.8,7.8,11.6,15.6,17.4,23.4-2.5-8.4-4.9-16.7-7.4-25.1ZM3977.6,2241.6c-6-7.8-12-15.6-18-23.4,2.5,8.4,5,16.8,7.4,25.2,5.9,7.9,11.7,15.7,17.5,23.5-2.3-8.5-4.7-16.9-7-25.4ZM3605.1,1760.6l-.7-.9.3.4.9,1.1-.5-.7ZM3624.6,1785.7l-7-9,6.2,8.8,6.9,9.2-6.1-9ZM3644.1,1810.8l-10.2-13.1,8.8,13,10,13.3-8.6-13.2ZM3663.6,1836l-12.1-15.6,10.2,15.7,11.8,15.7-9.9-15.7ZM3683.1,1861.2l-13.4-17.3c3.6,5.8,7.3,11.6,10.9,17.4l13.1,17.4c-3.5-5.8-7-11.7-10.6-17.5ZM3702.7,1886.4l-14.3-18.4,11.3,18.7,13.9,18.6-10.9-18.8ZM3707.9,1893.1l-.7-.9c3.8,6.6,7.6,13.1,11.4,19.7l7.1,9.4,7.6,10.1c-3.7-6.6-7.4-13.2-11-19.8l-14.3-18.4ZM3707.6,1885.3l-15.9-19.9c3.9,6.8,7.9,13.6,11.8,20.4l5.2,6.7,10.3,13.3c-3.8-6.8-7.6-13.6-11.4-20.5ZM3727.8,1910.4l-16.4-20.4c3.9,7,7.8,14,11.7,21l16,20.6c-3.8-7-7.5-14.1-11.3-21.2ZM3747.9,1935.5l-16.7-20.9c3.8,7.2,7.7,14.4,11.5,21.6l16.3,21c-3.7-7.3-7.4-14.5-11.1-21.8ZM3768,1960.7l-17.1-21.3c3.8,7.4,7.5,14.8,11.3,22.1l16.6,21.4c-3.6-7.4-7.2-14.8-10.9-22.2ZM3788.2,1985.9l-17.3-21.6c3.7,7.5,7.3,15,11,22.6l16.9,21.7c-3.5-7.6-7-15.1-10.6-22.7ZM3808.4,2011.1l-17.5-21.9c3.6,7.7,7.1,15.3,10.7,23l17.1,22c-3.4-7.7-6.8-15.4-10.2-23.1ZM3828.5,2036.3l-17.7-22.2c3.5,7.8,6.9,15.6,10.4,23.3l17.3,22.3c-3.3-7.8-6.6-15.6-9.9-23.5ZM3848.7,2061.5l-17.9-22.4c3.3,7.9,6.7,15.8,10,23.7,5.8,7.5,11.6,15,17.4,22.5-3.2-7.9-6.3-15.9-9.5-23.8ZM3868.9,2086.8c-6-7.5-12-15-18.1-22.6,3.2,8,6.4,16,9.6,24,5.9,7.6,11.7,15.2,17.6,22.7-3-8-6.1-16.1-9.1-24.1ZM3889.1,2112.1c-6-7.6-12.1-15.2-18.2-22.8,3.1,8.1,6.1,16.2,9.2,24.3,5.9,7.6,11.8,15.3,17.7,22.9-2.9-8.1-5.8-16.3-8.7-24.4ZM3909.3,2137.4c-6.1-7.6-12.2-15.3-18.3-22.9,2.9,8.2,5.9,16.4,8.8,24.6,5.9,7.7,11.9,15.4,17.8,23-2.8-8.2-5.5-16.5-8.3-24.7ZM3929.5,2162.8c-6.1-7.7-12.2-15.4-18.4-23.1,2.8,8.3,5.6,16.6,8.3,24.8,6,7.7,12,15.5,17.9,23.2-2.6-8.3-5.2-16.6-7.9-25ZM3949.8,2188.2c-6.1-7.7-12.3-15.5-18.5-23.2,2.6,8.4,5.3,16.7,7.9,25.1,6,7.8,12,15.6,18,23.4-2.5-8.4-4.9-16.8-7.4-25.2ZM3970,2213.6c-6.2-7.8-12.4-15.6-18.6-23.4,2.5,8.4,5,16.9,7.5,25.3,6,7.8,12.1,15.7,18.1,23.5-2.3-8.4-4.6-16.9-6.9-25.4ZM3567.3,1710.2l-.6-.7.3.4.7.8-.4-.5ZM3587.3,1735.2l-7.1-8.9,6.3,8.7,7,9.1-6.2-8.8ZM3607.3,1760.2l-10.5-13.1,9,12.9,10.2,13.1-8.8-13ZM3627.4,1785.2l-12.4-15.4,10.4,15.4,12.1,15.6-10.2-15.6ZM3647.4,1810.2l-13.7-17.1c3.7,5.7,7.5,11.5,11.2,17.2l13.4,17.3c-3.6-5.8-7.3-11.6-10.9-17.4ZM3667.4,1835.2l-14.6-18.3,11.6,18.5,14.3,18.4c-3.8-6.2-7.5-12.5-11.3-18.7ZM3687.5,1860.3l-15.4-19.2c3.9,6.5,7.9,13,11.8,19.6l15,19.3-11.4-19.7ZM3693.1,1859.1l-16.8-20.3c4,7,8.1,13.9,12.1,20.9l3.2,4,13.1,16.4c-3.9-7-7.8-14-11.7-21ZM3713.7,1884.1l-17.2-20.8c4,7.2,8,14.3,11.9,21.5l16.7,20.9c-3.8-7.2-7.7-14.4-11.5-21.6ZM3734.4,1909.1l-17.5-21.1c3.9,7.3,7.8,14.6,11.7,22l17,21.3c-3.8-7.4-7.5-14.7-11.3-22.1ZM3755.1,1934.1l-17.7-21.5c3.8,7.5,7.6,14.9,11.4,22.4l17.3,21.6c-3.7-7.5-7.3-15-11-22.5ZM3775.7,1959.1l-18-21.8c3.7,7.6,7.4,15.2,11.1,22.8l17.5,21.9c-3.6-7.6-7.1-15.3-10.7-22.9ZM3796.4,1984.2l-18.2-22c3.6,7.7,7.2,15.5,10.8,23.2l17.7,22.1c-3.4-7.8-6.9-15.5-10.3-23.3ZM3817.2,2009.3c-6.1-7.4-12.2-14.8-18.4-22.2,3.5,7.8,6.9,15.7,10.4,23.5l17.9,22.4c-3.3-7.9-6.6-15.8-10-23.6ZM3837.9,2034.4c-6.2-7.5-12.3-14.9-18.5-22.4,3.3,7.9,6.7,15.9,10,23.8l18,22.6c-3.2-8-6.4-16-9.6-24ZM3858.6,2059.5c-6.2-7.5-12.4-15.1-18.7-22.6,3.2,8.1,6.4,16.1,9.6,24.1,6.1,7.6,12.1,15.2,18.2,22.7-3.1-8.1-6.1-16.2-9.2-24.3ZM3879.3,2084.7c-6.2-7.6-12.5-15.2-18.8-22.8,3.1,8.1,6.1,16.3,9.2,24.4,6.1,7.6,12.2,15.3,18.3,22.9-2.9-8.2-5.8-16.3-8.7-24.5ZM3900.1,2109.9c-6.3-7.6-12.6-15.3-18.9-22.9,2.9,8.2,5.9,16.5,8.8,24.7,6.1,7.7,12.3,15.4,18.4,23-2.8-8.3-5.5-16.5-8.3-24.8ZM3920.8,2135.1c-6.3-7.7-12.6-15.4-19-23.1,2.8,8.3,5.6,16.6,8.4,24.9,6.2,7.7,12.3,15.5,18.5,23.2-2.6-8.3-5.3-16.7-7.9-25ZM3941.6,2160.3c-6.3-7.7-12.7-15.5-19.1-23.2,2.6,8.4,5.3,16.8,7.9,25.2,6.2,7.8,12.4,15.6,18.6,23.3-2.5-8.4-5-16.9-7.4-25.3ZM3962.4,2185.7c-6.4-7.8-12.8-15.6-19.2-23.4,2.5,8.5,5,16.9,7.5,25.4,6.2,7.8,12.5,15.7,18.7,23.5-2.3-8.5-4.6-17-7-25.5ZM3528.6,1660.2l-.6-.7v.2c.1,0,.9.9.9.9l-.3-.4ZM3549.1,1685l-7.3-8.8,6.3,8.4,7.2,9-6.3-8.6ZM3569.6,1709.8l-10.6-12.8,9.2,12.7,10.5,13.1-9-12.9ZM3590.1,1734.6l-12.6-15.3,10.7,15.3,12.4,15.5c-3.5-5.2-7-10.3-10.4-15.5ZM3610.7,1759.5l-14-17c3.8,5.7,7.7,11.4,11.5,17.1l13.7,17.1c-3.7-5.7-7.5-11.5-11.2-17.2ZM3631.2,1784.4l-15-18.2c4,6.1,8,12.3,12,18.4l14.6,18.3c-3.9-6.1-7.7-12.3-11.6-18.5ZM3651.8,1809.3l-15.8-19c4,6.5,8.1,12.9,12.1,19.4l15.4,19.2c-3.9-6.5-7.8-13-11.8-19.5ZM3672.4,1834.2l-16.3-19.7c4.1,6.7,8.1,13.5,12.2,20.2l15.9,19.9c-3.9-6.8-7.9-13.6-11.8-20.3ZM3678.5,1832.9l-17.6-20.6c4.1,7.1,8.2,14.2,12.3,21.3l1.2,1.4,16,19.4c-4-7.1-7.9-14.3-11.9-21.4ZM3699.7,1857.7l-17.9-21c4,7.3,8.1,14.5,12.1,21.8l17.5,21.1c-3.9-7.3-7.8-14.6-11.7-22ZM3720.9,1882.6l-18.2-21.3c4,7.4,7.9,14.8,11.8,22.3l17.7,21.4c-3.8-7.5-7.6-14.9-11.4-22.4ZM3742.1,1907.5l-18.4-21.6c3.8,7.6,7.7,15.1,11.5,22.6l18,21.7c-3.7-7.6-7.4-15.2-11.1-22.8ZM3763.3,1932.4l-18.6-21.9c3.7,7.7,7.5,15.3,11.2,23l18.2,22c-3.6-7.7-7.2-15.4-10.8-23.2ZM3784.6,1957.3l-18.8-22.1c3.6,7.8,7.2,15.6,10.9,23.4l18.3,22.2c-3.5-7.8-6.9-15.7-10.4-23.5ZM3805.8,1982.3c-6.3-7.4-12.6-14.8-19-22.3,3.5,7.9,7,15.8,10.5,23.7,6.2,7.5,12.4,15,18.5,22.4-3.3-7.9-6.7-15.9-10-23.8ZM3827.1,2007.2c-6.4-7.5-12.7-15-19.1-22.5,3.4,8,6.7,16,10.1,24l18.6,22.6c-3.2-8-6.4-16.1-9.6-24.1ZM3848.3,2032.2c-6.4-7.5-12.8-15.1-19.2-22.6,3.2,8.1,6.4,16.2,9.7,24.2,6.3,7.6,12.5,15.2,18.8,22.8-3.1-8.1-6.1-16.2-9.2-24.4ZM3869.6,2057.3c-6.4-7.6-12.9-15.2-19.3-22.8,3.1,8.2,6.2,16.3,9.2,24.5,6.3,7.6,12.6,15.3,18.9,22.9-2.9-8.2-5.8-16.4-8.8-24.6ZM3890.9,2082.3c-6.5-7.6-13-15.3-19.4-22.9,2.9,8.3,5.9,16.5,8.8,24.8,6.3,7.7,12.7,15.4,19,23-2.8-8.3-5.6-16.6-8.3-24.9ZM3912.1,2107.4c-6.5-7.7-13-15.3-19.5-23,2.8,8.3,5.6,16.7,8.4,25,6.4,7.7,12.7,15.5,19.1,23.2-2.6-8.4-5.3-16.7-7.9-25.1ZM3933.4,2132.5c-6.5-7.7-13.1-15.4-19.6-23.2,2.6,8.4,5.3,16.8,7.9,25.2,6.4,7.8,12.8,15.5,19.1,23.3-2.5-8.4-5-16.9-7.4-25.4ZM3954.7,2157.7c-6.6-7.8-13.1-15.5-19.7-23.3,2.5,8.5,5,17,7.5,25.5,6.4,7.8,12.8,15.6,19.2,23.5-2.3-8.5-4.7-17.1-7-25.6ZM3488.8,1610.4l-.2-.2.3.3h0ZM3509.8,1635l-7.3-8.6,6.5,8.4,7.2,8.7-6.4-8.5ZM3530.8,1659.7l-10.9-12.8c3.1,4.2,6.3,8.4,9.4,12.6l10.6,12.8c-3-4.2-6.1-8.4-9.1-12.6ZM3551.9,1684.4l-13-15.2c3.7,5.1,7.3,10.1,11,15.2l12.6,15.3c-3.5-5.1-7.1-10.2-10.6-15.3ZM3572.9,1709.1l-14.4-16.9c3.9,5.6,7.9,11.3,11.8,16.9l14,17c-3.8-5.7-7.6-11.3-11.5-17ZM3594,1733.8l-15.3-18c4.1,6.1,8.2,12.1,12.2,18.2l15,18.2c-4-6.1-7.9-12.2-11.9-18.4ZM3615.1,1758.6l-16.1-18.9c4.2,6.4,8.3,12.8,12.5,19.2l15.7,19c-4-6.5-8.1-12.9-12.1-19.4ZM3636.2,1783.3l-16.7-19.6c4.2,6.7,8.4,13.4,12.5,20l16.3,19.7c-4-6.7-8.1-13.4-12.1-20.2ZM3656.4,1806.9l-16.2-19c4.2,6.9,8.3,13.8,12.5,20.7l16.8,20.3c-4-6.9-8-13.9-12-20.8l-1-1.2ZM3664,1806.7l-18.3-20.9c4.2,7.2,8.3,14.4,12.5,21.7l17.9,21c-4-7.3-8-14.5-12.1-21.8ZM3685.7,1831.4l-18.6-21.2c4.1,7.4,8.2,14.7,12.3,22.1l18.2,21.3c-3.9-7.4-7.9-14.8-11.8-22.2ZM3707.4,1856.1l-18.9-21.4c4,7.5,8,15,11.9,22.5l18.4,21.6c-3.8-7.5-7.7-15.1-11.5-22.6ZM3729.2,1880.9l-19.1-21.7c3.9,7.6,7.8,15.3,11.6,22.9l18.6,21.8c-3.7-7.7-7.5-15.3-11.2-23ZM3750.9,1905.7l-19.3-21.9c3.8,7.7,7.5,15.5,11.3,23.2l18.8,22.1c-3.6-7.8-7.2-15.6-10.8-23.3ZM3772.7,1930.5l-19.4-22.1c3.6,7.8,7.3,15.7,10.9,23.5l19,22.3c-3.5-7.9-7-15.8-10.4-23.6ZM3794.5,1955.3c-6.5-7.4-13-14.9-19.6-22.3,3.5,7.9,7,15.9,10.5,23.8l19.1,22.4c-3.4-8-6.7-16-10.1-24ZM3816.3,1980.1c-6.6-7.5-13.1-15-19.7-22.5,3.4,8,6.7,16.1,10.1,24.1,6.4,7.5,12.8,15.1,19.2,22.6-3.2-8.1-6.4-16.1-9.6-24.2ZM3838.1,2005c-6.6-7.5-13.2-15.1-19.8-22.6,3.2,8.1,6.5,16.2,9.7,24.4,6.5,7.6,12.9,15.2,19.4,22.8-3.1-8.2-6.1-16.3-9.2-24.5ZM3859.9,2029.9c-6.6-7.6-13.3-15.2-19.9-22.8,3.1,8.2,6.2,16.4,9.3,24.6,6.5,7.6,13,15.3,19.4,22.9-2.9-8.2-5.9-16.5-8.8-24.7ZM3881.7,2054.8c-6.7-7.6-13.3-15.2-20-22.9,2.9,8.3,5.9,16.6,8.8,24.8,6.5,7.7,13,15.4,19.5,23-2.8-8.3-5.6-16.6-8.3-25ZM3903.5,2079.8c-6.7-7.7-13.4-15.3-20.1-23,2.8,8.4,5.6,16.7,8.4,25.1,6.6,7.7,13.1,15.4,19.6,23.1-2.6-8.4-5.3-16.8-7.9-25.2ZM3925.3,2104.7c-6.7-7.7-13.4-15.4-20.2-23.1,2.6,8.4,5.3,16.9,7.9,25.3,6.6,7.8,13.1,15.5,19.7,23.3-2.5-8.5-5-16.9-7.4-25.4ZM3947.1,2129.8c-6.7-7.7-13.5-15.5-20.3-23.2,2.5,8.5,5,17,7.5,25.5,6.6,7.8,13.2,15.6,19.8,23.4-2.3-8.5-4.7-17.1-7-25.7ZM3448.1,1560.9l-.2-.3h.1c0,.1.3.5.3.5l-.2-.2ZM3469.6,1585.5l-7.5-8.6,6.5,8.2,7.4,8.7-6.4-8.3ZM3491.1,1609.9l-11.1-12.6,9.6,12.4c3.6,4.3,7.2,8.5,10.9,12.8l-9.4-12.6ZM3512.6,1634.5l-13.2-15.1c3.7,5,7.4,10,11.1,14.9l13,15.3c-3.6-5-7.3-10.1-10.9-15.1ZM3534.1,1659l-14.6-16.6c4,5.6,8.1,11.2,12.1,16.8,4.8,5.6,9.6,11.2,14.3,16.8-3.9-5.6-7.9-11.3-11.8-16.9ZM3555.7,1683.6l-15.7-17.9c4.2,6,8.4,12,12.6,18.1l15.3,18c-4.1-6.1-8.2-12.1-12.2-18.2ZM3577.4,1708.2l-16.5-18.8c4.3,6.4,8.6,12.7,12.9,19.1l16.1,18.8c-4.1-6.4-8.3-12.8-12.4-19.2ZM3599,1732.8l-17.1-19.5c4.3,6.6,8.6,13.3,12.9,19.9l16.7,19.6c-4.2-6.7-8.3-13.3-12.5-20ZM3620.6,1757.4l-17.6-20c4.3,6.8,8.6,13.7,12.8,20.5l17.2,20.2c-4.1-6.9-8.3-13.8-12.4-20.7ZM3639,1778.3l-14.6-16.7c4.2,7,8.5,14.1,12.7,21.1l17.6,20.6c-4.1-7.1-8.2-14.2-12.3-21.3l-3.3-3.8ZM3649.5,1780.6l-19-21c4.2,7.3,8.4,14.6,12.6,21.9l18.6,21.2c-4.1-7.4-8.2-14.7-12.2-22.1ZM3671.8,1805.1l-19.3-21.3c4.1,7.5,8.3,14.9,12.4,22.4l18.9,21.5c-4-7.5-7.9-15-11.9-22.5ZM3694,1829.7l-19.5-21.6c4,7.6,8,15.1,12.1,22.7l19.1,21.7c-3.9-7.6-7.7-15.2-11.6-22.8ZM3716.3,1854.3l-19.7-21.8c3.9,7.7,7.8,15.4,11.7,23l19.3,21.9c-3.8-7.7-7.5-15.5-11.3-23.2ZM3738.6,1879l-19.9-22c3.8,7.8,7.6,15.6,11.4,23.4l19.4,22.1c-3.6-7.8-7.2-15.7-10.9-23.5ZM3760.9,1903.6l-20-22.2c3.7,7.9,7.3,15.8,11,23.6l19.6,22.3c-3.5-7.9-7-15.9-10.5-23.8ZM3783.2,1928.3c-6.7-7.4-13.4-14.9-20.2-22.3,3.5,8,7,16,10.6,23.9,6.6,7.5,13.1,15,19.7,22.4-3.4-8-6.7-16-10.1-24.1ZM3805.5,1953c-6.8-7.5-13.5-15-20.3-22.5,3.4,8.1,6.8,16.1,10.1,24.2,6.6,7.5,13.2,15.1,19.8,22.6-3.2-8.1-6.4-16.2-9.7-24.3ZM3827.8,1977.7c-6.8-7.5-13.6-15.1-20.4-22.6,3.2,8.2,6.5,16.3,9.7,24.4,6.7,7.6,13.3,15.2,19.9,22.7-3.1-8.2-6.2-16.4-9.2-24.6ZM3850.1,2002.5c-6.8-7.6-13.7-15.1-20.5-22.7,3.1,8.2,6.2,16.5,9.3,24.7,6.7,7.6,13.4,15.3,20,22.9-2.9-8.3-5.9-16.5-8.8-24.8ZM3872.5,2027.3c-6.8-7.6-13.7-15.2-20.6-22.8,2.9,8.3,5.9,16.6,8.8,24.9,6.7,7.7,13.4,15.3,20.1,23-2.8-8.3-5.6-16.7-8.4-25.1ZM3894.8,2052.1c-6.9-7.7-13.8-15.3-20.7-23,2.8,8.4,5.6,16.8,8.4,25.1,6.7,7.7,13.5,15.4,20.2,23.1-2.6-8.4-5.3-16.8-7.9-25.3ZM3917.2,2077c-6.9-7.7-13.8-15.4-20.7-23.1,2.6,8.5,5.3,16.9,7.9,25.4,6.8,7.7,13.5,15.5,20.3,23.2-2.5-8.5-5-17-7.4-25.5ZM3939.6,2101.9c-6.9-7.7-13.9-15.5-20.9-23.2,2.5,8.5,5,17.1,7.5,25.6,6.8,7.8,13.6,15.6,20.3,23.3-2.3-8.5-4.6-17.1-6.9-25.7ZM3428.3,1536l-7.5-8.3,6.6,8,7.5,8.5-6.5-8.2ZM3450.3,1560.4l-11.2-12.3,9.7,12.2,11.1,12.6c-3.2-4.2-6.4-8.3-9.6-12.4ZM3472.3,1584.8l-13.5-14.9c3.8,5,7.7,9.9,11.5,14.9,4.4,5,8.8,10,13.2,15-3.7-5-7.5-10-11.2-15ZM3494.4,1609.2l-15-16.6c4.1,5.5,8.3,11.1,12.4,16.6l14.6,16.7c-4-5.6-8-11.1-12-16.7ZM3516.5,1633.6l-16.1-17.7c4.3,6,8.6,12,12.9,17.9l15.7,17.8c-4.2-6-8.4-12-12.5-18ZM3538.6,1658.1l-16.8-18.6c4.4,6.3,8.8,12.6,13.1,18.9l16.5,18.8-12.8-19ZM3560.7,1682.5l-17.5-19.3c4.4,6.6,8.8,13.1,13.2,19.7l17.1,19.4c-4.3-6.6-8.6-13.2-12.9-19.9ZM3582.9,1707l-18-19.9c4.4,6.8,8.8,13.6,13.2,20.4l17.6,20c-4.3-6.9-8.6-13.7-12.8-20.6ZM3605.1,1731.5l-18.4-20.3c4.4,7,8.7,14,13.1,21l18,20.4c-4.2-7-8.4-14.1-12.7-21.1ZM3621.5,1749.6l-12.9-14.3c4.3,7.2,8.6,14.3,12.9,21.5l18.3,20.8h0c-4.2-7.1-8.3-14.4-12.5-21.6l-5.8-6.4ZM3635.1,1754.4l-19.7-21.2c4.3,7.4,8.5,14.8,12.8,22.2l19.3,21.3c-4.1-7.4-8.2-14.9-12.3-22.3ZM3657.8,1778.8l-20-21.4c4.2,7.5,8.3,15,12.5,22.5l19.5,21.6c-4-7.6-8-15.1-12-22.7ZM3680.6,1803.3l-20.2-21.6c4,7.6,8.1,15.3,12.1,22.9l19.7,21.8c-3.9-7.7-7.8-15.3-11.7-23ZM3703.4,1827.8l-20.3-21.8c3.9,7.7,7.9,15.5,11.8,23.2l19.9,22c-3.8-7.8-7.5-15.6-11.3-23.3ZM3726.2,1852.3l-20.5-22c3.8,7.8,7.6,15.7,11.4,23.5l20,22.2c-3.6-7.9-7.3-15.8-10.9-23.6ZM3749.1,1876.8c-6.9-7.4-13.7-14.8-20.6-22.2,3.7,7.9,7.3,15.9,11,23.8l20.2,22.3c-3.5-8-7-15.9-10.5-23.9ZM3771.9,1901.3l-20.8-22.3c3.5,8,7.1,16,10.6,24,6.8,7.5,13.5,15,20.3,22.5-3.4-8.1-6.7-16.1-10.1-24.2ZM3794.7,1925.9c-7-7.5-13.9-15-20.9-22.5,3.4,8.1,6.8,16.2,10.2,24.3,6.8,7.5,13.6,15.1,20.4,22.6-3.2-8.1-6.5-16.3-9.7-24.4ZM3817.6,1950.5c-7-7.5-14-15-21-22.6,3.2,8.2,6.5,16.4,9.7,24.5,6.8,7.6,13.7,15.2,20.5,22.7-3.1-8.2-6.2-16.4-9.3-24.7ZM3840.5,1975.1c-7-7.6-14-15.1-21.1-22.7,3.1,8.3,6.2,16.5,9.3,24.8,6.9,7.6,13.7,15.2,20.6,22.8-2.9-8.3-5.9-16.6-8.8-24.9ZM3863.3,1999.8c-7-7.6-14.1-15.2-21.2-22.8,2.9,8.3,5.9,16.7,8.8,25,6.9,7.7,13.8,15.3,20.7,22.9-2.8-8.4-5.6-16.7-8.4-25.1ZM3886.2,2024.5c-7.1-7.6-14.1-15.3-21.2-22.9,2.8,8.4,5.6,16.8,8.4,25.2,6.9,7.7,13.8,15.4,20.7,23.1-2.6-8.4-5.3-16.9-7.9-25.3ZM3909.1,2049.2c-7.1-7.7-14.2-15.3-21.3-23,2.6,8.5,5.3,17,7.9,25.4,7,7.7,13.9,15.4,20.8,23.1-2.5-8.5-5-17-7.4-25.6ZM3932,2074c-7.1-7.7-14.3-15.4-21.4-23.1,2.5,8.5,5,17.1,7.5,25.6,7,7.8,14,15.5,20.9,23.3-2.3-8.6-4.7-17.2-7-25.8ZM3386,1487l-7.5-8.1,6.7,7.9,7.4,8.2c-2.2-2.7-4.4-5.4-6.6-8ZM3408.5,1511.3l-11.5-12.4c3.3,4.1,6.7,8.1,10,12.2l11.1,12.3c-3.2-4.1-6.5-8.1-9.7-12.2ZM3431.1,1535.5c-4.6-4.9-9.2-9.8-13.7-14.8,3.9,4.9,7.8,9.8,11.7,14.7,4.5,5,9,10,13.5,14.9-3.8-4.9-7.6-9.9-11.4-14.8ZM3453.6,1559.7l-15.3-16.4c4.2,5.5,8.4,11,12.6,16.4l15,16.6c-4.1-5.5-8.2-11.1-12.4-16.6ZM3476.2,1584l-16.3-17.6c4.4,5.9,8.8,11.8,13.2,17.7l16.1,17.8c-4.3-6-8.6-12-12.9-17.9ZM3498.8,1608.3l-17.2-18.4c4.5,6.3,9,12.5,13.5,18.8l16.8,18.6c-4.4-6.3-8.8-12.6-13.2-18.9ZM3521.5,1632.6l-17.9-19.2c4.6,6.5,9.1,13.1,13.6,19.6l17.5,19.3c-4.4-6.6-8.8-13.1-13.2-19.7ZM3544.2,1656.9l-18.4-19.7c4.5,6.8,9.1,13.5,13.6,20.3l17.9,19.8c-4.4-6.8-8.8-13.6-13.2-20.4ZM3566.9,1681.3l-18.8-20.2c4.5,6.9,9,13.9,13.5,20.8l18.4,20.3c-4.4-7-8.7-14-13.1-21ZM3589.6,1705.6l-19.2-20.5c4.4,7.1,8.9,14.2,13.3,21.3l18.8,20.7c-4.3-7.2-8.6-14.3-12.9-21.5ZM3603.9,1721l-11.1-11.9c4.4,7.3,8.7,14.5,13.1,21.8l16.3,18,2.7,3c-4.2-7.3-8.4-14.6-12.6-21.9l-8.4-9ZM3620.6,1728.3l-20.4-21.3c4.3,7.5,8.6,14.9,12.9,22.4l20,21.4c-4.1-7.5-8.3-15-12.4-22.5ZM3643.9,1752.6l-20.6-21.5c4.2,7.6,8.4,15.2,12.6,22.8l20.1,21.6c-4-7.6-8.1-15.2-12.1-22.9ZM3667.2,1776.9l-20.8-21.7c4.1,7.7,8.1,15.4,12.2,23l20.3,21.8c-3.9-7.7-7.8-15.5-11.8-23.2ZM3690.6,1801.2l-21-21.9c3.9,7.8,7.9,15.6,11.8,23.4l20.5,22c-3.8-7.8-7.6-15.6-11.4-23.5ZM3713.9,1825.6l-21.1-22c3.8,7.9,7.6,15.8,11.4,23.6l20.6,22.2c-3.7-7.9-7.3-15.8-11-23.8ZM3737.3,1850l-21.2-22.2c3.7,8,7.4,15.9,11,23.9l20.8,22.3c-3.5-8-7-16-10.5-24ZM3760.7,1874.4c-7.1-7.4-14.2-14.9-21.4-22.3,3.5,8,7.1,16.1,10.6,24.1,7,7.5,13.9,15,20.9,22.4-3.4-8.1-6.8-16.2-10.1-24.3ZM3784,1898.8l-21.5-22.4c3.4,8.1,6.8,16.3,10.2,24.4,7,7.5,14,15.1,21,22.6-3.2-8.2-6.5-16.3-9.7-24.5ZM3807.4,1923.3c-7.2-7.5-14.4-15-21.6-22.6,3.2,8.2,6.5,16.4,9.7,24.6,7,7.6,14.1,15.1,21.1,22.7-3.1-8.2-6.2-16.5-9.3-24.7ZM3830.8,1947.8c-7.2-7.5-14.4-15.1-21.6-22.7,3.1,8.3,6.2,16.6,9.3,24.8,7.1,7.6,14.1,15.2,21.2,22.8-2.9-8.3-5.9-16.6-8.8-25ZM3854.2,1972.3c-7.2-7.6-14.5-15.2-21.7-22.8,2.9,8.4,5.9,16.7,8.8,25.1,7.1,7.6,14.2,15.3,21.2,22.9-2.8-8.4-5.6-16.8-8.4-25.2ZM3877.6,1996.9c-7.3-7.6-14.5-15.2-21.8-22.9,2.8,8.4,5.6,16.8,8.4,25.3,7.1,7.7,14.2,15.3,21.3,23-2.6-8.5-5.3-16.9-7.9-25.4ZM3901,2021.4c-7.3-7.6-14.6-15.3-21.9-22.9,2.6,8.5,5.3,17,7.9,25.5,7.1,7.7,14.3,15.4,21.4,23.1-2.5-8.5-5-17.1-7.4-25.6ZM3924.5,2046.1c-7.3-7.7-14.6-15.4-21.9-23,2.5,8.6,5,17.1,7.4,25.7,7.2,7.7,14.3,15.5,21.5,23.2-2.3-8.6-4.7-17.2-7-25.8ZM3342.8,1438.3c-2.6-2.7-5.2-5.4-7.8-8.2l6.7,7.7,7.6,8.2-6.6-7.8ZM3365.8,1462.3c-3.9-4-7.7-8.1-11.6-12.1,3.3,3.9,6.7,7.9,10,11.8l11.5,12.4-10-12.2ZM3388.8,1486.4l-14-14.6c4,4.8,7.9,9.7,11.9,14.5l13.7,14.8c-3.9-4.9-7.8-9.8-11.7-14.7ZM3411.8,1510.5c-5.2-5.4-10.3-10.8-15.5-16.2l12.9,16.3,15.3,16.4c-4.2-5.5-8.5-11-12.7-16.5ZM3435,1534.6l-16.7-17.5c4.5,5.9,9,11.8,13.6,17.6l16.3,17.6c-4.4-5.9-8.8-11.8-13.2-17.7ZM3458.1,1558.8c-5.9-6.1-11.7-12.2-17.6-18.3,4.6,6.2,9.2,12.4,13.9,18.6l17.2,18.4c-4.5-6.2-9-12.5-13.5-18.7ZM3481.3,1583l-18.2-19c4.7,6.5,9.3,13,14,19.4l17.8,19.2c-4.5-6.5-9-13-13.6-19.5ZM3504.4,1607.1l-18.7-19.6c4.6,6.7,9.3,13.4,13.9,20.1l18.4,19.7c-4.5-6.7-9.1-13.5-13.6-20.3ZM3527.6,1631.3l-19.2-20c4.6,6.9,9.2,13.8,13.9,20.7l18.8,20.2c-4.5-6.9-9-13.9-13.5-20.8ZM3550.8,1655.5l-19.6-20.4c4.6,7.1,9.1,14.1,13.7,21.2l19.1,20.5c-4.4-7.1-8.8-14.2-13.3-21.3ZM3574.1,1679.8l-19.9-20.8c4.5,7.2,9,14.4,13.5,21.6l19.4,20.9c-4.3-7.2-8.7-14.5-13-21.8ZM3586.2,1692.4l-9-9.4c4.4,7.3,8.8,14.7,13.2,22l14.3,15.3,5.5,5.9c-4.3-7.4-8.5-14.8-12.8-22.2l-11.1-11.6ZM3606.2,1702.2l-21-21.3c4.3,7.5,8.6,15.1,13,22.6l20.6,21.5c-4.2-7.6-8.4-15.1-12.5-22.7ZM3630.1,1726.3l-21.2-21.5c4.2,7.6,8.4,15.3,12.6,22.9l20.8,21.7c-4.1-7.7-8.1-15.4-12.2-23ZM3653.9,1750.5l-21.4-21.7c4.1,7.7,8.2,15.5,12.3,23.2l20.9,21.8c-3.9-7.8-7.9-15.5-11.8-23.3ZM3677.8,1774.7l-21.6-21.9c4,7.8,7.9,15.6,11.9,23.5l21.1,22c-3.8-7.9-7.6-15.7-11.4-23.6ZM3701.6,1799l-21.7-22c3.8,7.9,7.7,15.8,11.5,23.7l21.2,22.2c-3.7-7.9-7.3-15.9-11-23.9ZM3725.5,1823.2c-7.3-7.4-14.5-14.8-21.8-22.2,3.7,8,7.4,16,11,24l21.4,22.3c-3.5-8-7.1-16.1-10.6-24.1ZM3749.4,1847.5c-7.3-7.4-14.6-14.8-21.9-22.3,3.5,8.1,7.1,16.2,10.6,24.2,7.2,7.5,14.3,15,21.5,22.4-3.4-8.1-6.8-16.2-10.2-24.4ZM3773.3,1871.8c-7.3-7.5-14.7-14.9-22-22.4,3.4,8.2,6.8,16.3,10.2,24.5,7.2,7.5,14.4,15,21.6,22.5-3.2-8.2-6.5-16.4-9.7-24.6ZM3797.3,1896.1c-7.4-7.5-14.7-15-22.1-22.5,3.2,8.2,6.5,16.5,9.8,24.7,7.2,7.6,14.4,15.1,21.6,22.6-3.1-8.3-6.2-16.5-9.3-24.8ZM3821.2,1920.5c-7.4-7.5-14.8-15.1-22.2-22.6,3.1,8.3,6.2,16.6,9.3,24.9,7.2,7.6,14.5,15.2,21.7,22.7-2.9-8.3-5.9-16.7-8.8-25ZM3845.1,1944.9c-7.4-7.6-14.8-15.1-22.3-22.7,2.9,8.4,5.9,16.7,8.8,25.1,7.3,7.6,14.5,15.2,21.8,22.8-2.8-8.4-5.6-16.8-8.4-25.2ZM3869.1,1969.3c-7.4-7.6-14.9-15.2-22.4-22.8,2.8,8.4,5.6,16.9,8.4,25.3,7.3,7.7,14.6,15.3,21.9,22.9-2.6-8.5-5.3-17-7.9-25.4ZM3893,1993.7c-7.5-7.6-14.9-15.2-22.4-22.9,2.6,8.5,5.3,17,7.9,25.5,7.3,7.7,14.6,15.4,21.9,23-2.5-8.5-4.9-17.1-7.4-25.6ZM3917,2018.2c-7.5-7.7-15-15.3-22.5-23,2.5,8.6,5,17.1,7.4,25.7,7.3,7.7,14.7,15.4,22,23.1-2.3-8.6-4.6-17.2-6.9-25.8ZM3298.5,1389.7l-7.7-7.8,6.9,7.7,7.6,8-6.8-7.8ZM3322,1413.7c-3.9-4-7.8-7.9-11.7-11.9l10.2,11.7,11.6,12.1c-3.4-4-6.7-8-10.1-12ZM3345.5,1437.6l-14.2-14.4c4.1,4.8,8.1,9.6,12.2,14.5,4.6,4.8,9.2,9.7,13.9,14.5l-11.9-14.5ZM3369.2,1461.7c-5.3-5.4-10.6-10.8-15.9-16.2,4.4,5.4,8.9,10.8,13.3,16.2l15.5,16.2c-4.3-5.4-8.6-10.8-12.8-16.2ZM3392.7,1485.6c-5.7-5.8-11.3-11.5-17-17.3,4.6,5.8,9.2,11.6,13.9,17.5,5.6,5.8,11.1,11.6,16.7,17.4-4.5-5.8-9-11.7-13.5-17.6ZM3416.4,1509.6l-17.9-18.2c4.7,6.1,9.4,12.3,14.1,18.4l17.6,18.4c-4.6-6.2-9.2-12.4-13.8-18.6ZM3440,1533.6c-6.2-6.3-12.4-12.5-18.6-18.8,4.8,6.4,9.5,12.8,14.3,19.2l18.2,19c-4.7-6.5-9.3-13-14-19.4ZM3463.7,1557.6l-19.1-19.4c4.8,6.7,9.6,13.3,14.4,20l18.7,19.6c-4.6-6.7-9.3-13.4-13.9-20.1ZM3487.4,1581.7c-6.5-6.6-13.1-13.3-19.6-19.9,4.8,6.9,9.5,13.7,14.3,20.6l19.2,20c-4.6-6.9-9.2-13.8-13.8-20.7ZM3511.1,1605.7l-20-20.3c4.7,7,9.4,14,14.1,21l19.6,20.4c-4.5-7-9.1-14.1-13.6-21.2ZM3534.9,1629.8l-20.3-20.6c4.6,7.2,9.2,14.3,13.8,21.5l19.9,20.8c-4.5-7.2-9-14.4-13.4-21.6ZM3558.6,1653.9l-20.6-20.9c4.5,7.3,9.1,14.6,13.6,21.9l20.2,21c-4.4-7.3-8.8-14.7-13.2-22ZM3568.4,1663.9l-6.9-7c4.4,7.4,8.9,14.8,13.3,22.3l12.1,12.6,8.3,8.7c-4.3-7.5-8.6-14.9-12.8-22.4l-14-14.2ZM3591.9,1676.1l-21.7-21.4c4.4,7.6,8.7,15.2,13.1,22.8l21.2,21.5c-4.2-7.6-8.4-15.2-12.6-22.9ZM3616.2,1700.1l-21.9-21.6c4.2,7.7,8.4,15.4,12.7,23l21.4,21.7c-4.1-7.7-8.2-15.4-12.2-23.2ZM3640.6,1724.1l-22-21.7c4.1,7.8,8.2,15.6,12.3,23.3l21.6,21.9c-3.9-7.8-7.9-15.6-11.8-23.4ZM3665,1748.2l-22.2-21.9c4,7.9,7.9,15.7,11.9,23.6l21.7,22c-3.8-7.9-7.6-15.8-11.4-23.7ZM3689.4,1772.3l-22.3-22c3.8,7.9,7.7,15.9,11.5,23.8l21.8,22.1c-3.7-8-7.3-16-11-24ZM3713.8,1796.4c-7.5-7.4-14.9-14.7-22.4-22.1,3.7,8,7.4,16.1,11.1,24.1,7.3,7.4,14.6,14.9,21.9,22.3-3.5-8.1-7.1-16.1-10.6-24.2ZM3738.3,1820.6c-7.5-7.4-15-14.8-22.5-22.2,3.5,8.1,7.1,16.2,10.6,24.3,7.3,7.5,14.7,14.9,22,22.4-3.4-8.1-6.8-16.3-10.2-24.4ZM3762.7,1844.7c-7.5-7.4-15.1-14.9-22.6-22.4,3.4,8.2,6.8,16.4,10.2,24.5,7.4,7.5,14.8,15,22.1,22.5-3.2-8.2-6.5-16.4-9.7-24.7ZM3787.1,1868.9c-7.6-7.5-15.1-15-22.7-22.5,3.2,8.3,6.5,16.5,9.7,24.7,7.4,7.5,14.8,15.1,22.2,22.6-3.1-8.3-6.2-16.6-9.3-24.9ZM3811.6,1893.2c-7.6-7.5-15.2-15-22.8-22.6,3.1,8.3,6.2,16.6,9.3,25,7.4,7.6,14.9,15.1,22.3,22.7-2.9-8.4-5.9-16.7-8.8-25.1ZM3836.1,1917.4c-7.6-7.5-15.2-15.1-22.8-22.6,2.9,8.4,5.9,16.8,8.8,25.2,7.5,7.6,14.9,15.2,22.4,22.8-2.8-8.4-5.6-16.9-8.3-25.3ZM3860.6,1941.7c-7.6-7.6-15.3-15.1-22.9-22.7,2.8,8.5,5.6,16.9,8.4,25.4,7.5,7.6,15,15.3,22.4,22.9-2.6-8.5-5.3-17-7.9-25.5ZM3885,1966c-7.6-7.6-15.3-15.2-23-22.8,2.6,8.5,5.3,17,7.9,25.6,7.5,7.7,15,15.3,22.5,22.9-2.5-8.6-4.9-17.1-7.4-25.7ZM3909.6,1990.4c-7.7-7.6-15.4-15.3-23.1-22.9,2.5,8.6,5,17.2,7.4,25.7,7.5,7.7,15.1,15.4,22.6,23.1-2.3-8.6-4.6-17.2-6.9-25.9ZM3253.3,1341.6l-7.7-7.6,6.7,7.3,7.6,7.8c-2.2-2.5-4.4-5-6.7-7.5ZM3277.3,1365.4l-12-11.9c3.5,3.9,7,7.8,10.5,11.7,3.9,4,7.8,7.9,11.7,11.9-3.4-3.9-6.8-7.8-10.2-11.7ZM3301.4,1389.2l-14.5-14.3c4.1,4.7,8.2,9.4,12.3,14.2l14.2,14.5c-4-4.8-8.1-9.5-12.1-14.3ZM3325.4,1413l-16.1-16c4.5,5.3,9,10.6,13.5,15.9,5.3,5.4,10.6,10.8,15.9,16.1-4.4-5.4-8.8-10.7-13.2-16.1ZM3349.5,1436.9l-17.3-17.1c4.7,5.7,9.4,11.5,14.1,17.2l17.1,17.3c-4.6-5.8-9.2-11.6-13.8-17.4ZM3373.6,1460.7l-18.2-18c4.8,6.1,9.7,12.2,14.5,18.3,6,6.1,11.9,12.1,17.9,18.1-4.7-6.2-9.5-12.3-14.2-18.5ZM3397.8,1484.6l-19-18.8c4.9,6.4,9.8,12.8,14.7,19.1l18.6,18.9c-4.8-6.4-9.5-12.8-14.3-19.2ZM3421.9,1508.4c-6.5-6.4-13-12.9-19.6-19.3,4.9,6.6,9.8,13.2,14.7,19.8,6.4,6.5,12.7,12.9,19.1,19.4-4.8-6.6-9.5-13.3-14.3-19.9ZM3446.2,1532.3l-20-19.8c4.9,6.8,9.7,13.6,14.6,20.3l19.6,19.9c-4.7-6.8-9.5-13.7-14.2-20.5ZM3470.4,1556.2c-6.8-6.7-13.6-13.4-20.4-20.1,4.8,7,9.6,13.9,14.4,20.9l20,20.3c-4.7-7-9.4-14-14.1-21ZM3494.6,1580.2l-20.7-20.5c4.8,7.1,9.5,14.2,14.3,21.3l20.3,20.6c-4.6-7.2-9.2-14.3-13.8-21.5ZM3518.9,1604.1l-21-20.7c4.7,7.3,9.3,14.5,14,21.7l20.6,20.8c-4.5-7.3-9-14.6-13.5-21.8ZM3543.2,1628.1l-21.3-21c4.6,7.4,9.1,14.7,13.7,22.1l20.8,21.1c-4.4-7.4-8.8-14.8-13.3-22.2ZM3550.6,1635.3l-4.5-4.5c4.5,7.5,8.9,15,13.4,22.4l9.7,9.9,11.3,11.5c-4.3-7.5-8.6-15-13-22.6l-17-16.7ZM3577.5,1650l-22.3-21.4c4.4,7.6,8.7,15.3,13.1,22.9l21.9,21.6c-4.2-7.7-8.4-15.4-12.7-23ZM3602.4,1673.9l-22.5-21.6c4.2,7.7,8.5,15.5,12.7,23.2l22,21.7c-4.1-7.8-8.2-15.5-12.2-23.3ZM3627.3,1697.8l-22.6-21.7c4.1,7.8,8.2,15.6,12.3,23.4l22.2,21.9c-4-7.9-7.9-15.7-11.9-23.6ZM3652.3,1721.7l-22.8-21.9c4,7.9,8,15.8,11.9,23.7l22.3,22c-3.8-7.9-7.6-15.9-11.4-23.8ZM3677.2,1745.7c-7.6-7.3-15.2-14.6-22.9-22,3.8,8,7.7,15.9,11.5,23.9l22.4,22.1c-3.7-8-7.4-16-11-24.1ZM3702.1,1769.7c-7.7-7.4-15.3-14.7-23-22.1,3.7,8.1,7.4,16.1,11.1,24.2,7.5,7.4,15,14.8,22.5,22.2-3.5-8.1-7.1-16.2-10.6-24.3ZM3727.1,1793.7c-7.7-7.4-15.4-14.8-23.1-22.2,3.5,8.1,7.1,16.3,10.6,24.4,7.5,7.5,15.1,14.9,22.6,22.3-3.4-8.2-6.8-16.3-10.2-24.5ZM3752.1,1817.7c-7.7-7.4-15.4-14.9-23.2-22.3,3.4,8.2,6.8,16.4,10.2,24.6,7.6,7.5,15.1,15,22.7,22.4-3.2-8.2-6.5-16.5-9.7-24.7ZM3777.1,1841.8c-7.7-7.5-15.5-14.9-23.3-22.4,3.2,8.3,6.5,16.5,9.7,24.8,7.6,7.5,15.2,15,22.8,22.5-3.1-8.3-6.2-16.6-9.3-24.9ZM3802.1,1865.9c-7.8-7.5-15.5-15-23.3-22.5,3.1,8.3,6.2,16.7,9.3,25,7.6,7.5,15.3,15.1,22.9,22.6-2.9-8.4-5.9-16.8-8.8-25.1ZM3827.1,1890c-7.8-7.5-15.6-15-23.4-22.6,2.9,8.4,5.9,16.8,8.8,25.2,7.7,7.6,15.3,15.1,22.9,22.7-2.8-8.4-5.6-16.9-8.3-25.3ZM3852.1,1914.1c-7.8-7.5-15.6-15.1-23.5-22.7,2.8,8.5,5.6,16.9,8.4,25.4,7.7,7.6,15.3,15.2,23,22.8-2.6-8.5-5.2-17-7.9-25.5ZM3877.1,1938.3c-7.8-7.6-15.7-15.1-23.5-22.7,2.6,8.5,5.3,17.1,7.9,25.6,7.7,7.6,15.4,15.3,23,22.9-2.5-8.6-4.9-17.1-7.4-25.7ZM3902.1,1962.5c-7.9-7.6-15.7-15.2-23.6-22.9,2.5,8.6,4.9,17.2,7.4,25.8,7.7,7.7,15.4,15.3,23.1,23-2.3-8.6-4.6-17.3-6.9-25.9ZM3207.2,1293.8l-8-7.8,6.9,7.2,7.9,7.9-6.7-7.3ZM3231.6,1317.4c-4-3.9-8-7.8-12.1-11.6,3.5,3.8,6.9,7.5,10.4,11.3,4,4,8.1,8,12.1,12.1l-10.5-11.7ZM3256.1,1341l-14.7-14.2c4.2,4.7,8.4,9.4,12.6,14,4.8,4.8,9.6,9.6,14.5,14.3-4.1-4.7-8.2-9.5-12.4-14.2ZM3280.6,1364.7c-5.4-5.2-10.9-10.5-16.3-15.7,4.6,5.3,9.2,10.5,13.7,15.8,5.4,5.3,10.8,10.7,16.1,16-4.5-5.4-9-10.7-13.6-16.1ZM3305.2,1388.4l-17.7-17c4.8,5.7,9.7,11.5,14.5,17.2,5.8,5.7,11.5,11.4,17.3,17.1-4.7-5.8-9.4-11.5-14.1-17.3ZM3329.9,1412.1l-18.6-17.9c5,6.1,9.9,12.1,14.9,18.2,6.1,6,12.1,12,18.2,18-4.8-6.1-9.6-12.2-14.4-18.3ZM3354.5,1435.8l-19.3-18.6c5,6.3,10,12.7,15,19,6.3,6.2,12.6,12.5,18.9,18.7-4.9-6.4-9.7-12.7-14.6-19.1ZM3379.2,1459.5l-19.9-19.1c5,6.5,10,13.1,15,19.6l19.6,19.3c-4.9-6.6-9.8-13.2-14.7-19.8ZM3403.9,1483.2c-6.8-6.5-13.6-13-20.4-19.6,5,6.7,10,13.5,15,20.2,6.7,6.6,13.3,13.2,20,19.7-4.9-6.8-9.7-13.6-14.6-20.4ZM3428.6,1507l-20.8-20c5,6.9,9.9,13.8,14.9,20.7l20.4,20.1c-4.8-7-9.6-13.9-14.4-20.9ZM3453.4,1530.8l-21.2-20.3c4.9,7.1,9.8,14.1,14.7,21.2l20.7,20.4c-4.7-7.1-9.5-14.2-14.2-21.3ZM3478.2,1554.6l-21.4-20.6c4.8,7.2,9.6,14.4,14.4,21.6l21,20.7c-4.7-7.2-9.3-14.5-14-21.7ZM3503,1578.4l-21.7-20.8c4.7,7.3,9.4,14.6,14.1,21.9l21.3,21c-4.6-7.4-9.1-14.7-13.7-22.1ZM3527.8,1602.3l-21.9-21.1c4.6,7.4,9.2,14.9,13.8,22.3l21.5,21.2c-4.4-7.5-8.9-14.9-13.3-22.4ZM3532.6,1606.8l-2.1-2c4.5,7.5,9,15.1,13.5,22.6l7.3,7.2,14.4,14.2c-4.3-7.6-8.7-15.1-13-22.7l-20.1-19.3ZM3537.9,1600.2l-22.8-21.3c4.5,7.6,9,15.2,13.5,22.7l4.7,4.5,17.6,16.9c-4.4-7.6-8.7-15.2-13.1-22.9ZM3563.2,1623.9l-22.9-21.4c4.4,7.7,8.8,15.4,13.2,23l22.5,21.6c-4.2-7.7-8.5-15.4-12.7-23.1ZM3588.7,1647.6l-23.1-21.6c4.3,7.8,8.5,15.5,12.8,23.3l22.6,21.7c-4.1-7.8-8.2-15.6-12.3-23.4ZM3614.1,1671.4l-23.2-21.7c4.1,7.9,8.2,15.7,12.4,23.5l22.7,21.8c-4-7.9-7.9-15.8-11.9-23.7ZM3639.5,1695.2l-23.3-21.8c4,7.9,7.9,15.8,11.9,23.8l22.9,22c-3.8-8-7.7-15.9-11.5-23.9ZM3665,1719.1l-23.5-22c3.8,8,7.7,16,11.5,24l23,22.1c-3.7-8-7.4-16.1-11-24.1ZM3690.5,1742.9l-23.6-22.1c3.7,8.1,7.4,16.2,11.1,24.2l23.1,22.2c-3.5-8.1-7.1-16.2-10.6-24.4ZM3716,1766.8c-7.9-7.4-15.8-14.8-23.7-22.2,3.5,8.1,7.1,16.3,10.6,24.4l23.2,22.3c-3.4-8.2-6.8-16.4-10.2-24.6ZM3741.5,1790.7c-7.9-7.4-15.8-14.8-23.7-22.3,3.4,8.2,6.8,16.4,10.2,24.7,7.8,7.5,15.5,14.9,23.3,22.4-3.2-8.3-6.5-16.5-9.7-24.8ZM3767,1814.6c-7.9-7.4-15.9-14.9-23.8-22.3,3.2,8.3,6.5,16.6,9.7,24.9,7.8,7.5,15.6,15,23.3,22.5-3.1-8.3-6.2-16.7-9.3-25ZM3792.5,1838.6c-7.9-7.5-15.9-14.9-23.9-22.4,3.1,8.4,6.2,16.7,9.3,25,7.8,7.5,15.6,15.1,23.4,22.6-2.9-8.4-5.9-16.8-8.8-25.2ZM3818.1,1862.6c-8-7.5-16-15-24-22.5,2.9,8.4,5.9,16.8,8.8,25.2,7.8,7.6,15.7,15.1,23.5,22.6-2.8-8.5-5.6-16.9-8.3-25.4ZM3843.6,1886.6c-8-7.5-16-15-24-22.6,2.8,8.5,5.6,17,8.3,25.4,7.9,7.6,15.7,15.2,23.5,22.7-2.6-8.5-5.2-17-7.9-25.6ZM3869.1,1910.6c-8-7.5-16-15.1-24.1-22.7,2.6,8.5,5.2,17.1,7.9,25.6,7.9,7.6,15.7,15.2,23.6,22.8-2.5-8.6-4.9-17.2-7.4-25.8ZM3894.7,1934.7c-8-7.6-16.1-15.2-24.1-22.7,2.5,8.6,4.9,17.2,7.4,25.8,7.9,7.6,15.8,15.3,23.7,22.9-2.3-8.7-4.6-17.3-6.9-26ZM3159.9,1246.1l-7.8-7.4,7,7.2,7.8,7.5-7-7.4ZM3184.9,1269.6c-4.1-3.8-8.1-7.7-12.2-11.5l10.7,11.3,12.1,11.7c-3.5-3.8-7-7.6-10.6-11.5ZM3209.9,1293.1c-4.9-4.6-9.9-9.3-14.8-13.9,4.3,4.7,8.6,9.3,12.9,14,4.9,4.7,9.7,9.4,14.6,14.1-4.2-4.7-8.4-9.4-12.6-14.1ZM3235,1316.7l-16.8-15.8c4.7,5.3,9.4,10.5,14.1,15.8l16.3,15.7c-4.5-5.2-9.1-10.5-13.6-15.7ZM3260.1,1340.2c-6-5.6-12-11.2-17.9-16.8,4.9,5.7,9.8,11.3,14.7,17,5.9,5.7,11.7,11.3,17.6,17-4.8-5.7-9.6-11.4-14.4-17.1ZM3285.2,1363.8l-18.9-17.8c5,6,10.1,12,15.1,18l18.6,17.9c-4.9-6-9.9-12.1-14.8-18.1ZM3310.3,1387.3c-6.5-6.1-13.1-12.3-19.6-18.4,5.1,6.3,10.2,12.5,15.3,18.8,6.4,6.2,12.9,12.4,19.3,18.6-5-6.3-10-12.7-15-19ZM3335.4,1410.9l-20.3-19c5.1,6.5,10.3,13,15.4,19.5,6.6,6.4,13.3,12.8,19.9,19.1-5-6.6-10-13.1-15.1-19.7ZM3360.7,1434.5l-20.8-19.5c5.1,6.7,10.3,13.4,15.4,20.1,6.8,6.5,13.6,13.1,20.4,19.6-5-6.7-10-13.5-15-20.2ZM3385.9,1458.1l-21.2-19.9c5.1,6.9,10.2,13.7,15.3,20.6,6.9,6.7,13.8,13.3,20.8,19.9-4.9-6.9-9.9-13.8-14.8-20.7ZM3411.2,1481.7l-21.6-20.2c5,7,10,14,15,21l21.2,20.3c-4.9-7.1-9.7-14.1-14.6-21.2ZM3436.4,1505.4l-21.8-20.4c4.9,7.1,9.9,14.3,14.8,21.4,7.2,6.9,14.3,13.7,21.4,20.6-4.8-7.2-9.6-14.4-14.4-21.6ZM3461.8,1529.1l-22.2-20.7c4.8,7.3,9.7,14.5,14.6,21.8l21.7,20.8c-4.7-7.3-9.4-14.6-14.1-21.9ZM3487.1,1552.7l-22.4-20.9c4.7,7.4,9.5,14.8,14.2,22.1l21.9,21c-4.6-7.4-9.2-14.8-13.7-22.3ZM3512.5,1576.4l-22.6-21.1c4.6,7.5,9.2,15,13.9,22.4l22.2,21.3c-4.5-7.5-9-15.1-13.4-22.6ZM3523.1,1574.2l-23.4-21.3c4.5,7.6,9,15.2,13.6,22.9l2,1.8,21,19.6c-4.4-7.7-8.8-15.3-13.1-23ZM3549,1597.8l-23.5-21.4c4.4,7.7,8.8,15.4,13.2,23.1l23.1,21.6c-4.2-7.7-8.5-15.5-12.7-23.3ZM3574.9,1621.5l-23.7-21.6c4.3,7.8,8.5,15.6,12.8,23.4l23.2,21.7c-4.1-7.8-8.2-15.7-12.3-23.5ZM3600.9,1645.1l-23.8-21.7c4.1,7.9,8.2,15.8,12.4,23.6l23.3,21.8c-4-7.9-7.9-15.8-11.9-23.8ZM3626.9,1668.8l-23.9-21.8c4,8,8,15.9,12,23.9l23.4,21.9c-3.8-8-7.7-16-11.5-24ZM3652.9,1692.5l-24-21.9c3.8,8,7.7,16.1,11.5,24.1l23.6,22c-3.7-8.1-7.4-16.1-11-24.2ZM3678.9,1716.2c-8-7.3-16.1-14.7-24.1-22,3.7,8.1,7.4,16.2,11.1,24.3l23.7,22.1c-3.5-8.1-7.1-16.3-10.6-24.4ZM3704.9,1739.9c-8.1-7.4-16.1-14.7-24.2-22.1,3.5,8.2,7.1,16.3,10.6,24.5,7.9,7.4,15.8,14.8,23.7,22.2-3.4-8.2-6.8-16.4-10.2-24.6ZM3730.9,1763.7c-8.1-7.4-16.2-14.8-24.3-22.2,3.4,8.2,6.8,16.5,10.2,24.7,8,7.5,15.9,14.9,23.8,22.3-3.2-8.3-6.5-16.6-9.7-24.8ZM3757,1787.5c-8.1-7.4-16.2-14.8-24.4-22.3,3.2,8.3,6.5,16.6,9.7,24.9,8,7.5,15.9,14.9,23.9,22.4-3.1-8.3-6.2-16.7-9.2-25ZM3783,1811.3c-8.1-7.4-16.3-14.9-24.4-22.3,3.1,8.4,6.2,16.7,9.3,25.1,8,7.5,16,15,24,22.5-2.9-8.4-5.9-16.8-8.8-25.2ZM3809.1,1835.2c-8.2-7.5-16.3-14.9-24.5-22.4,2.9,8.4,5.9,16.9,8.8,25.3,8,7.5,16,15,24,22.6-2.8-8.5-5.5-16.9-8.3-25.4ZM3835.2,1859.1c-8.2-7.5-16.4-15-24.6-22.5,2.8,8.5,5.5,17,8.3,25.5,8,7.6,16.1,15.1,24.1,22.6-2.6-8.5-5.2-17.1-7.8-25.6ZM3861.2,1883c-8.2-7.5-16.4-15-24.6-22.6,2.6,8.6,5.2,17.1,7.9,25.7,8.1,7.6,16.1,15.1,24.1,22.7-2.5-8.6-4.9-17.2-7.4-25.8ZM3887.4,1906.9c-8.2-7.6-16.5-15.1-24.7-22.7,2.5,8.6,4.9,17.2,7.4,25.8,8.1,7.6,16.1,15.2,24.2,22.8-2.3-8.6-4.6-17.3-6.8-25.9ZM3111.7,1198.8c-2.6-2.4-5.2-4.7-7.7-7.1l6.8,6.8,7.7,7.2c-2.3-2.3-4.5-4.7-6.8-7ZM3137.2,1222.2l-12.5-11.5c3.7,3.8,7.4,7.6,11.1,11.4,4,3.8,8,7.6,12.1,11.3-3.5-3.7-7.1-7.5-10.6-11.2ZM3162.8,1245.6c-5.1-4.6-10.2-9.3-15.2-14,4.3,4.6,8.7,9.2,13,13.7l14.9,14.1c-4.2-4.6-8.5-9.2-12.7-13.8ZM3188.3,1268.9c-5.7-5.2-11.3-10.3-17-15.5,4.8,5.2,9.5,10.4,14.3,15.5,5.6,5.2,11.1,10.5,16.7,15.7-4.7-5.2-9.3-10.5-14-15.7ZM3213.9,1292.4c-6.1-5.6-12.2-11.2-18.3-16.7,5,5.6,10,11.2,15,16.8l18,16.9c-4.9-5.7-9.8-11.3-14.7-17ZM3239.4,1315.7c-6.4-5.8-12.8-11.7-19.2-17.5,5.2,5.9,10.3,11.9,15.5,17.8,6.3,5.9,12.6,11.8,18.9,17.7-5.1-6-10.1-12-15.2-18.1ZM3265.1,1339.1l-20-18.3c5.2,6.2,10.5,12.5,15.7,18.7l19.6,18.4c-5.1-6.3-10.2-12.5-15.3-18.8ZM3290.8,1362.6c-6.9-6.3-13.8-12.6-20.7-18.9,5.3,6.5,10.5,12.9,15.8,19.4,6.7,6.3,13.5,12.6,20.2,18.9-5.1-6.5-10.2-13-15.4-19.5ZM3316.5,1386l-21.2-19.3c5.2,6.6,10.5,13.3,15.7,19.9l20.8,19.4c-5.1-6.7-10.2-13.4-15.3-20ZM3342.2,1409.5l-21.6-19.7c5.2,6.8,10.4,13.6,15.6,20.4l21.2,19.9c-5.1-6.9-10.1-13.7-15.2-20.6ZM3367.9,1432.9l-21.9-20c5.1,7,10.3,13.9,15.4,20.9l21.5,20.2c-5-7-10-14-15-21ZM3393.8,1456.5l-22.3-20.3c5.1,7.1,10.2,14.2,15.2,21.3l21.8,20.4c-4.9-7.1-9.8-14.3-14.8-21.4ZM3419.6,1480l-22.6-20.6c5,7.2,10,14.4,14.9,21.7l22.1,20.7c-4.8-7.2-9.6-14.5-14.5-21.8ZM3445.4,1503.5l-22.8-20.8c4.9,7.3,9.7,14.6,14.6,22l22.4,20.9c-4.7-7.4-9.5-14.7-14.2-22.1ZM3471.3,1527.1l-23-20.9c4.8,7.4,9.5,14.9,14.3,22.3l22.6,21.1c-4.6-7.5-9.2-15-13.9-22.4ZM3496.4,1549.9l-22.4-20.4c4.7,7.5,9.3,15.1,14,22.6l22.7,21.2c-4.5-7.6-9-15.1-13.5-22.7l-.8-.7ZM3508.3,1548.3l-24-21.3c4.5,7.7,9.1,15.3,13.6,23l23.5,21.4c-4.4-7.7-8.8-15.4-13.1-23.1ZM3534.8,1571.8l-24.1-21.4c4.4,7.7,8.8,15.5,13.2,23.2l23.7,21.6c-4.3-7.8-8.5-15.6-12.8-23.4ZM3561.2,1595.3l-24.3-21.5c4.3,7.8,8.5,15.7,12.8,23.5l23.8,21.7c-4.1-7.9-8.2-15.7-12.3-23.6ZM3587.7,1618.8l-24.4-21.6c4.1,7.9,8.3,15.8,12.4,23.7l23.9,21.8c-4-7.9-8-15.9-11.9-23.8ZM3614.3,1642.3l-24.5-21.8c4,8,8,16,12,23.9l24,21.9c-3.8-8-7.7-16-11.5-24ZM3640.8,1665.9l-24.6-21.9c3.8,8,7.7,16.1,11.5,24.1l24.1,22c-3.7-8.1-7.4-16.2-11.1-24.3ZM3667.3,1689.5c-8.2-7.3-16.4-14.6-24.7-21.9,3.7,8.1,7.4,16.2,11.1,24.4l24.2,22.1c-3.5-8.2-7.1-16.3-10.6-24.5ZM3693.9,1713.1c-8.2-7.3-16.5-14.7-24.8-22,3.5,8.2,7.1,16.4,10.6,24.6,8.1,7.4,16.2,14.8,24.3,22.2-3.4-8.2-6.8-16.5-10.2-24.7ZM3720.4,1736.7c-8.3-7.4-16.6-14.7-24.9-22.1,3.4,8.3,6.8,16.5,10.2,24.8,8.1,7.4,16.3,14.8,24.4,22.3-3.2-8.3-6.5-16.6-9.7-24.9ZM3747,1760.4c-8.3-7.4-16.6-14.8-24.9-22.2,3.2,8.3,6.5,16.6,9.7,25,8.2,7.5,16.3,14.9,24.4,22.3-3.1-8.4-6.2-16.7-9.2-25.1ZM3773.6,1784.1c-8.3-7.4-16.7-14.8-25-22.3,3.1,8.4,6.2,16.8,9.3,25.1,8.2,7.5,16.4,14.9,24.5,22.4-2.9-8.4-5.8-16.8-8.8-25.3ZM3800.2,1807.8c-8.3-7.4-16.7-14.9-25.1-22.3,2.9,8.4,5.9,16.9,8.8,25.3,8.2,7.5,16.4,15,24.6,22.5-2.8-8.5-5.5-17-8.3-25.5ZM3826.8,1831.5c-8.4-7.5-16.7-14.9-25.1-22.4,2.8,8.5,5.5,17,8.3,25.5,8.2,7.5,16.4,15,24.6,22.6-2.6-8.5-5.2-17.1-7.8-25.6ZM3853.4,1855.3c-8.4-7.5-16.8-15-25.2-22.5,2.6,8.6,5.2,17.1,7.8,25.7,8.2,7.5,16.5,15.1,24.7,22.6-2.4-8.6-4.9-17.2-7.3-25.8ZM3880,1879.2c-8.4-7.5-16.8-15.1-25.3-22.6,2.4,8.6,4.9,17.2,7.4,25.9,8.3,7.6,16.5,15.2,24.8,22.7-2.3-8.7-4.6-17.3-6.9-26ZM3062.7,1151.9l-8.2-7.3c2.3,2.3,4.7,4.6,7,6.8l8,7.3-6.9-6.9ZM3088.6,1175c-4.2-3.7-8.4-7.5-12.5-11.2,3.6,3.6,7.2,7.2,10.8,10.8,4.2,3.9,8.4,7.8,12.7,11.6l-11-11.3ZM3114.6,1198.3l-15.3-13.7c4.4,4.5,8.8,9.1,13.2,13.6,5.1,4.6,10.1,9.3,15.2,13.9-4.3-4.6-8.7-9.2-13-13.8ZM3140.6,1221.5c-5.7-5.1-11.4-10.2-17.1-15.3,4.8,5.1,9.7,10.2,14.5,15.3l17,15.6c-4.8-5.2-9.6-10.4-14.4-15.6ZM3166.6,1244.7l-18.5-16.5c5.1,5.6,10.3,11.2,15.4,16.8,6.1,5.5,12.1,11.1,18.2,16.6-5-5.6-10-11.2-15.1-16.9ZM3192.8,1268c-6.5-5.8-13.1-11.7-19.6-17.5,5.3,5.9,10.6,11.8,15.9,17.8l19.2,17.6c-5.1-5.9-10.3-11.9-15.4-17.8ZM3218.9,1291.3c-6.8-6-13.6-12.1-20.4-18.1,5.4,6.2,10.7,12.4,16.1,18.6,6.6,6.1,13.3,12.1,19.9,18.2-5.2-6.2-10.4-12.4-15.6-18.6ZM3245.1,1314.6c-7-6.2-14-12.5-21-18.7,5.4,6.4,10.7,12.8,16.1,19.2l20.7,18.9c-5.2-6.4-10.5-12.9-15.7-19.3ZM3271.3,1337.8c-7.2-6.4-14.3-12.7-21.5-19.1,5.4,6.6,10.7,13.2,16.1,19.7,7.1,6.5,14.1,12.9,21.2,19.3-5.2-6.6-10.5-13.3-15.7-19.9ZM3297.5,1361.1l-22-19.5c5.3,6.8,10.7,13.5,16,20.3l21.6,19.7c-5.2-6.8-10.4-13.6-15.6-20.4ZM3323.8,1384.5c-7.5-6.6-14.9-13.2-22.4-19.9,5.3,6.9,10.6,13.8,15.9,20.8l21.9,20c-5.1-7-10.3-13.9-15.4-20.9ZM3350.1,1407.9l-22.7-20.2c5.2,7,10.4,14.1,15.6,21.1l22.2,20.3c-5-7.1-10.1-14.2-15.1-21.2ZM3376.4,1431.2l-23-20.4c5.1,7.2,10.2,14.3,15.3,21.5l22.6,20.6c-5-7.2-9.9-14.4-14.9-21.7ZM3402.7,1454.6l-23.2-20.6c5,7.3,10,14.6,15,21.8l22.8,20.8c-4.9-7.3-9.7-14.7-14.6-22ZM3429.1,1478l-23.5-20.8c4.9,7.4,9.8,14.8,14.7,22.2l23,20.9c-4.8-7.4-9.5-14.8-14.2-22.3ZM3455.5,1501.4l-23.6-21c4.8,7.5,9.6,15,14.4,22.4l23.2,21.1c-4.6-7.5-9.3-15-13.9-22.6ZM3478.1,1521.5l-20.1-17.8c4.7,7.6,9.3,15.1,14,22.7l23.4,21.3c-4.5-7.6-9-15.2-13.6-22.9l-3.8-3.3ZM3493.6,1522.4l-24.6-21.3c4.5,7.7,9.1,15.4,13.6,23.1l24.1,21.4c-4.4-7.7-8.8-15.5-13.2-23.2ZM3520.6,1545.7l-24.8-21.4c4.4,7.8,8.8,15.6,13.3,23.3l24.2,21.5c-4.3-7.8-8.5-15.6-12.8-23.4ZM3547.6,1569.1l-24.8-21.5c4.3,7.8,8.5,15.7,12.8,23.5l24.4,21.7c-4.1-7.9-8.3-15.8-12.4-23.7ZM3574.6,1592.5l-25-21.6c4.1,7.9,8.3,15.9,12.4,23.8l24.5,21.7c-4-8-7.9-15.9-11.9-23.9ZM3601.6,1615.9l-25.1-21.7c4,8,8,16,12,24l24.6,21.8c-3.8-8-7.7-16.1-11.5-24.1ZM3628.7,1639.3l-25.2-21.8c3.8,8.1,7.7,16.1,11.5,24.2l24.7,21.9c-3.7-8.1-7.4-16.2-11.1-24.3ZM3655.8,1662.8c-8.4-7.3-16.8-14.6-25.3-21.9,3.7,8.1,7.4,16.3,11.1,24.4,8.3,7.4,16.5,14.7,24.8,22-3.5-8.2-7.1-16.4-10.6-24.5ZM3682.9,1686.3c-8.4-7.3-16.9-14.6-25.3-22,3.5,8.2,7.1,16.4,10.6,24.6,8.3,7.4,16.6,14.7,24.9,22.1-3.4-8.2-6.8-16.5-10.1-24.7ZM3709.9,1709.8c-8.5-7.3-16.9-14.7-25.4-22,3.4,8.3,6.8,16.5,10.2,24.8,8.3,7.4,16.6,14.8,24.9,22.2-3.2-8.3-6.5-16.6-9.7-24.9ZM3737.1,1733.3c-8.5-7.4-17-14.7-25.5-22.1,3.2,8.3,6.5,16.7,9.7,25,8.4,7.4,16.7,14.9,25,22.3-3.1-8.4-6.1-16.7-9.2-25.1ZM3764.2,1756.8c-8.5-7.4-17-14.8-25.6-22.2,3.1,8.4,6.2,16.8,9.2,25.2,8.4,7.4,16.7,14.9,25.1,22.3-2.9-8.4-5.8-16.9-8.7-25.3ZM3791.3,1780.4c-8.5-7.4-17.1-14.8-25.6-22.3,2.9,8.5,5.8,16.9,8.8,25.4,8.4,7.5,16.8,14.9,25.1,22.4-2.8-8.5-5.5-17-8.3-25.5ZM3818.4,1804c-8.5-7.4-17.1-14.9-25.7-22.3,2.8,8.5,5.5,17,8.3,25.5,8.4,7.5,16.8,15,25.2,22.5-2.6-8.6-5.2-17.1-7.8-25.7ZM3845.5,1827.7c-8.6-7.5-17.1-14.9-25.7-22.4,2.6,8.6,5.2,17.1,7.8,25.7,8.4,7.5,16.8,15,25.2,22.5-2.4-8.6-4.9-17.2-7.3-25.8ZM3872.7,1851.4c-8.6-7.5-17.2-15-25.8-22.5,2.4,8.6,4.9,17.3,7.3,25.9,8.5,7.6,16.9,15.1,25.3,22.7-2.3-8.7-4.6-17.4-6.9-26.1ZM3012.5,1105.1l-7.9-6.9c2.4,2.3,4.8,4.5,7.1,6.8l7.9,7.1-7.1-6.9ZM3039,1128.2c-4.2-3.7-8.4-7.4-12.7-11l11.1,10.8,12.6,11.2c-3.7-3.7-7.3-7.3-11-11ZM3065.4,1151.2c-5.1-4.5-10.3-9-15.4-13.4,4.5,4.5,9,9,13.5,13.5,5.1,4.6,10.2,9.1,15.3,13.7-4.4-4.6-8.9-9.1-13.3-13.7ZM3092,1174.3l-17.5-15.3c5,5.1,9.9,10.2,14.9,15.3,5.7,5.1,11.4,10.2,17.1,15.3-4.8-5.1-9.6-10.2-14.4-15.3ZM3118.6,1197.4c-6.3-5.5-12.6-10.9-18.9-16.4,5.2,5.5,10.4,11,15.6,16.5,6.2,5.5,12.4,11,18.5,16.5-5.1-5.5-10.2-11.1-15.3-16.7ZM3145.2,1220.6l-19.9-17.3c5.4,5.8,10.7,11.7,16.1,17.5,6.5,5.8,13,11.6,19.6,17.4-5.2-5.9-10.5-11.8-15.7-17.7ZM3171.8,1243.7c-6.9-6-13.8-12-20.7-18,5.4,6.1,10.9,12.2,16.3,18.3,6.8,6.1,13.6,12.2,20.4,18.2-5.3-6.2-10.7-12.4-16-18.5ZM3198.4,1266.8c-7.1-6.2-14.2-12.3-21.3-18.5,5.5,6.4,11,12.7,16.5,19.1,7,6.2,14,12.4,21,18.7-5.4-6.4-10.8-12.8-16.1-19.2ZM3225.1,1290c-7.3-6.3-14.6-12.7-21.9-19,5.5,6.6,11,13.1,16.5,19.6l21.5,19.2c-5.4-6.6-10.7-13.2-16.1-19.8ZM3251.8,1313.1c-7.5-6.5-14.9-12.9-22.4-19.4,5.5,6.7,10.9,13.5,16.4,20.2,7.3,6.5,14.6,13,21.9,19.5-5.3-6.7-10.6-13.5-15.9-20.2ZM3278.6,1336.3l-22.8-19.8c5.4,6.9,10.8,13.7,16.2,20.6l22.3,19.9c-5.3-6.9-10.5-13.8-15.7-20.7ZM3305.4,1359.5c-7.7-6.7-15.4-13.3-23.1-20,5.3,7,10.6,14,15.9,20.9l22.7,20.2c-5.2-7-10.4-14.1-15.6-21.1ZM3332.2,1382.7l-23.4-20.2c5.2,7.1,10.5,14.2,15.7,21.4l23,20.4c-5.1-7.2-10.2-14.3-15.3-21.5ZM3359,1406l-23.7-20.5c5.2,7.2,10.3,14.5,15.5,21.7l23.2,20.6c-5-7.3-10-14.5-15-21.8ZM3385.9,1429.2l-23.9-20.7c5,7.3,10.1,14.7,15.1,22l23.4,20.8c-4.9-7.4-9.8-14.7-14.7-22.1ZM3412.8,1452.5l-24.1-20.8c4.9,7.4,9.8,14.9,14.8,22.3l23.7,21c-4.8-7.5-9.6-15-14.3-22.4ZM3439.7,1475.8l-24.3-21c4.8,7.5,9.6,15.1,14.4,22.6l23.8,21.1c-4.7-7.6-9.3-15.1-14-22.7ZM3459.8,1493.1l-17.6-15.2c4.7,7.6,9.4,15.2,14,22.8l22.5,20,1.4,1.3c-4.5-7.6-9-15.3-13.6-23l-6.9-6ZM3478.9,1496.5l-25.2-21.3c4.6,7.7,9.1,15.5,13.7,23.2l24.7,21.4c-4.4-7.8-8.8-15.5-13.2-23.3ZM3506.4,1519.7l-25.3-21.4c4.4,7.8,8.8,15.6,13.2,23.4l24.9,21.5c-4.3-7.8-8.5-15.7-12.8-23.5ZM3534,1542.9l-25.4-21.5c4.3,7.9,8.6,15.8,12.9,23.6l24.9,21.6c-4.1-7.9-8.2-15.8-12.3-23.7ZM3561.5,1566.2l-25.5-21.6c4.1,7.9,8.3,15.9,12.4,23.8l25.1,21.7c-4-8-8-16-11.9-24ZM3589.1,1589.5l-25.6-21.7c4,8,8,16,12,24.1l25.2,21.8c-3.8-8.1-7.7-16.1-11.5-24.2ZM3616.7,1612.8l-25.7-21.7c3.8,8.1,7.7,16.2,11.5,24.3,8.4,7.3,16.8,14.6,25.2,21.9-3.7-8.1-7.4-16.2-11-24.4ZM3644.3,1636.1c-8.6-7.3-17.2-14.5-25.8-21.8,3.7,8.1,7.4,16.3,11.1,24.4,8.5,7.3,16.9,14.6,25.3,22-3.5-8.2-7.1-16.4-10.6-24.6ZM3671.9,1659.4c-8.6-7.3-17.3-14.6-25.9-21.9,3.5,8.2,7.1,16.4,10.6,24.6,8.5,7.4,17,14.7,25.4,22-3.4-8.3-6.8-16.5-10.1-24.8ZM3699.5,1682.8c-8.6-7.3-17.3-14.6-26-22,3.4,8.3,6.8,16.6,10.2,24.8,8.5,7.4,17,14.7,25.5,22.1-3.2-8.3-6.4-16.6-9.7-25ZM3727.1,1706.2c-8.7-7.3-17.3-14.7-26-22.1,3.2,8.3,6.5,16.7,9.7,25,8.5,7.4,17,14.8,25.6,22.2-3.1-8.4-6.1-16.8-9.2-25.2ZM3754.8,1729.6c-8.7-7.4-17.4-14.7-26.1-22.1,3.1,8.4,6.1,16.8,9.2,25.2,8.5,7.4,17.1,14.8,25.6,22.2-2.9-8.4-5.8-16.9-8.7-25.3ZM3782.4,1753.1c-8.7-7.4-17.4-14.8-26.2-22.2,2.9,8.5,5.8,16.9,8.7,25.4,8.6,7.5,17.1,14.9,25.7,22.3-2.8-8.5-5.5-17-8.3-25.5ZM3810.1,1776.5c-8.7-7.4-17.5-14.8-26.2-22.3,2.8,8.5,5.5,17,8.3,25.6,8.6,7.5,17.2,14.9,25.7,22.4-2.6-8.6-5.2-17.1-7.8-25.7ZM3837.8,1800c-8.7-7.4-17.5-14.9-26.3-22.3,2.6,8.6,5.2,17.2,7.8,25.7,8.6,7.5,17.2,15,25.8,22.4-2.4-8.6-4.9-17.2-7.3-25.9ZM3865.5,1823.6c-8.8-7.5-17.5-14.9-26.3-22.4,2.4,8.6,4.9,17.3,7.3,25.9,8.6,7.5,17.2,15,25.8,22.5-2.3-8.7-4.5-17.4-6.8-26ZM2961.4,1058.6c-2.6-2.2-5.2-4.4-7.7-6.6l6.8,6.3,7.8,6.9-6.9-6.6ZM2988.4,1081.5l-12.9-11c3.8,3.6,7.7,7.3,11.5,10.9,4.1,3.6,8.3,7.2,12.4,10.8-3.7-3.6-7.3-7.2-11-10.7ZM3015.5,1104.6c-5.3-4.5-10.6-9-15.9-13.6,4.6,4.5,9.1,8.9,13.7,13.3l15.5,13.6c-4.4-4.4-8.9-8.9-13.3-13.3ZM3042.4,1127.5c-5.9-5-11.8-10-17.8-15.1,5,5,10,10.1,15.1,15.1,5.8,5.1,11.6,10.1,17.4,15.2-4.9-5.1-9.8-10.1-14.7-15.2ZM3069.5,1150.5c-6.4-5.4-12.8-10.9-19.2-16.3,5.3,5.4,10.5,10.9,15.8,16.3l18.9,16.5c-5.2-5.5-10.4-11-15.5-16.5ZM3096.5,1173.3c-6.7-5.7-13.4-11.4-20.1-17.1,5.5,5.8,10.9,11.6,16.4,17.3,6.6,5.8,13.3,11.6,19.9,17.3-5.4-5.9-10.8-11.7-16.1-17.6ZM3123.6,1196.3l-21-17.8c5.6,6.1,11.1,12.2,16.7,18.2,6.9,6,13.8,12,20.7,18-5.5-6.1-10.9-12.3-16.4-18.4ZM3150.8,1219.3c-7.2-6.1-14.5-12.3-21.8-18.4,5.6,6.3,11.2,12.6,16.8,18.9,7.1,6.2,14.2,12.4,21.3,18.5-5.5-6.3-11-12.7-16.4-19ZM3178,1242.4l-22.3-18.9c5.6,6.5,11.2,13,16.8,19.5,7.3,6.3,14.6,12.6,21.8,18.9-5.5-6.5-10.9-13-16.3-19.6ZM3205.2,1265.4l-22.8-19.3c5.6,6.6,11.1,13.3,16.7,19.9,7.5,6.5,14.9,13,22.4,19.4-5.4-6.7-10.9-13.4-16.3-20.1ZM3232.4,1288.4c-7.7-6.5-15.4-13-23.1-19.6,5.5,6.8,11,13.6,16.5,20.4,7.6,6.6,15.2,13.2,22.8,19.7-5.4-6.9-10.8-13.7-16.2-20.6ZM3259.7,1311.5c-7.8-6.6-15.7-13.2-23.5-19.9,5.5,7,10.9,13.9,16.4,20.8,7.7,6.7,15.4,13.3,23.1,20-5.3-7-10.6-14-16-21ZM3287,1334.5c-7.9-6.7-15.9-13.4-23.8-20.1,5.4,7.1,10.8,14.2,16.2,21.2,7.8,6.8,15.6,13.5,23.3,20.2-5.2-7.1-10.4-14.2-15.7-21.3ZM3314.4,1357.6l-24.1-20.4c5.3,7.2,10.6,14.4,15.8,21.5l23.6,20.5c-5.1-7.2-10.2-14.4-15.4-21.6ZM3341.7,1380.7c-8.1-6.8-16.2-13.7-24.3-20.5,5.2,7.3,10.3,14.6,15.5,21.8l23.9,20.7c-5-7.3-10.1-14.7-15.1-22ZM3369.1,1403.8l-24.5-20.7c5.1,7.4,10.1,14.8,15.2,22.2l24.1,20.8c-4.9-7.4-9.8-14.9-14.7-22.3ZM3396.5,1427l-24.7-20.9c4.9,7.5,9.9,15,14.8,22.4l24.2,21c-4.8-7.5-9.6-15-14.3-22.5ZM3424,1450.1l-24.9-21c4.8,7.6,9.6,15.1,14.4,22.7l24.4,21.1c-4.7-7.6-9.3-15.2-14-22.8ZM3441.3,1464.8l-14.9-12.6c4.7,7.7,9.4,15.3,14.1,22.9l19.9,17.2,4.6,4c-4.5-7.7-9.1-15.4-13.6-23.1l-10.1-8.6ZM3464.3,1470.6l-25.8-21.2c4.6,7.8,9.1,15.5,13.7,23.3l25.3,21.4c-4.4-7.8-8.8-15.6-13.2-23.4ZM3492.3,1493.7l-25.9-21.3c4.4,7.8,8.8,15.7,13.3,23.5l25.4,21.4c-4.3-7.9-8.5-15.7-12.8-23.6ZM3520.4,1516.8l-26-21.4c4.3,7.9,8.6,15.8,12.8,23.7l25.5,21.5c-4.1-7.9-8.2-15.9-12.4-23.8ZM3548.5,1539.9l-26.1-21.5c4.1,8,8.3,15.9,12.4,23.9l25.6,21.6c-4-8-8-16-11.9-24ZM3576.6,1563.1l-26.2-21.6c4,8,8,16.1,12,24.1l25.7,21.7c-3.8-8.1-7.6-16.1-11.5-24.2ZM3604.7,1586.2l-26.3-21.7c3.8,8.1,7.7,16.2,11.5,24.3,8.6,7.3,17.2,14.5,25.8,21.8-3.7-8.1-7.4-16.3-11-24.4ZM3632.8,1609.4c-8.8-7.2-17.6-14.5-26.4-21.8,3.7,8.2,7.4,16.3,11.1,24.5,8.7,7.3,17.3,14.6,25.9,21.9-3.5-8.2-7.1-16.4-10.6-24.6ZM3661,1632.6c-8.8-7.3-17.6-14.5-26.5-21.8,3.5,8.2,7.1,16.5,10.6,24.7,8.7,7.3,17.3,14.6,26,22-3.4-8.3-6.7-16.5-10.1-24.8ZM3689.1,1655.9c-8.8-7.3-17.7-14.6-26.5-21.9,3.4,8.3,6.8,16.6,10.1,24.9,8.7,7.3,17.4,14.7,26,22-3.2-8.3-6.4-16.7-9.6-25ZM3717.3,1679.1c-8.9-7.3-17.7-14.6-26.6-22,3.2,8.4,6.4,16.7,9.7,25.1,8.7,7.4,17.4,14.7,26.1,22.1-3.1-8.4-6.1-16.8-9.2-25.2ZM3745.4,1702.4c-8.9-7.3-17.8-14.7-26.7-22,3.1,8.4,6.1,16.8,9.2,25.2,8.7,7.4,17.5,14.8,26.2,22.2-2.9-8.5-5.8-16.9-8.7-25.4ZM3773.6,1725.7c-8.9-7.4-17.8-14.7-26.7-22.1,2.9,8.5,5.8,16.9,8.7,25.4,8.8,7.4,17.5,14.8,26.2,22.2-2.7-8.5-5.5-17-8.2-25.5ZM3801.8,1749.1c-8.9-7.4-17.8-14.8-26.8-22.2,2.7,8.5,5.5,17.1,8.2,25.6,8.8,7.4,17.5,14.9,26.3,22.3-2.6-8.6-5.2-17.1-7.8-25.7ZM3830,1772.4c-8.9-7.4-17.9-14.8-26.8-22.2,2.6,8.6,5.2,17.2,7.8,25.8,8.8,7.5,17.6,14.9,26.3,22.3-2.4-8.6-4.8-17.3-7.3-25.9ZM3858.3,1795.9c-9-7.4-17.9-14.9-26.9-22.3,2.4,8.6,4.8,17.3,7.3,25.9,8.8,7.5,17.6,15,26.4,22.5-2.3-8.7-4.5-17.4-6.8-26ZM2909.6,1012.6l-8.2-6.8c2.3,2.1,4.7,4.2,7,6.3l8,6.9-6.8-6.3ZM2937,1035.3c-4.3-3.6-8.7-7.2-13-10.8l11.3,10.4c4.4,3.7,8.7,7.5,13.1,11.2-3.8-3.6-7.6-7.2-11.3-10.8ZM2964.4,1058.1l-16-13.3c4.6,4.4,9.2,8.7,13.7,13.1,5.3,4.5,10.6,9,15.9,13.5l-13.6-13.3ZM2991.8,1080.9c-6-4.9-11.9-9.9-17.9-14.9,5.1,4.9,10.1,9.9,15.2,14.8l17.8,15.2c-5-5-10.1-10.1-15.1-15.1ZM3019.3,1103.6c-6.4-5.3-12.9-10.7-19.3-16,5.4,5.4,10.8,10.9,16.2,16.3,6.4,5.4,12.7,10.8,19.1,16.2-5.3-5.5-10.6-11-15.9-16.4ZM3046.9,1126.5c-6.9-5.7-13.7-11.4-20.6-17,5.6,5.8,11.2,11.5,16.7,17.3l20.2,17.1c-5.5-5.8-10.9-11.6-16.4-17.4ZM3074.5,1149.3c-7.1-5.9-14.3-11.8-21.4-17.7,5.7,6.1,11.4,12.1,17.1,18.1,7,5.9,14,11.8,20.9,17.8-5.5-6-11.1-12.1-16.6-18.2ZM3102.2,1172.2l-22.1-18.3c5.7,6.2,11.4,12.5,17.1,18.7l21.7,18.4c-5.6-6.3-11.1-12.6-16.7-18.8ZM3129.8,1195.1c-7.5-6.2-15.1-12.4-22.6-18.7,5.7,6.4,11.4,12.8,17.1,19.2,7.4,6.3,14.9,12.6,22.3,18.9-5.6-6.5-11.2-13-16.8-19.5ZM3157.5,1217.9c-7.7-6.4-15.4-12.7-23.1-19.1,5.7,6.6,11.4,13.2,17.1,19.8l22.7,19.3c-5.6-6.7-11.1-13.3-16.7-20ZM3185.3,1240.8c-7.8-6.5-15.7-12.9-23.5-19.4,5.6,6.8,11.3,13.5,17,20.3,7.7,6.5,15.4,13.1,23.1,19.6-5.5-6.8-11-13.6-16.6-20.4ZM3213.1,1263.7l-24-19.8c5.6,6.9,11.2,13.8,16.8,20.7,7.8,6.6,15.6,13.2,23.4,19.8-5.4-6.9-10.9-13.9-16.3-20.8ZM3240.9,1286.7l-24.2-20c5.5,7,11,14,16.5,21,7.9,6.7,15.9,13.4,23.8,20.1-5.4-7.1-10.7-14.1-16.1-21.2ZM3268.7,1309.6c-8.2-6.7-16.3-13.4-24.5-20.2,5.4,7.1,10.8,14.3,16.2,21.4,8,6.8,16.1,13.6,24.1,20.3-5.3-7.2-10.5-14.4-15.8-21.5ZM3296.6,1332.5l-24.7-20.4c5.3,7.2,10.6,14.5,15.9,21.7l24.3,20.5c-5.2-7.3-10.3-14.6-15.5-21.8ZM3324.5,1355.5c-8.3-6.9-16.6-13.7-25-20.6,5.2,7.3,10.4,14.7,15.6,22l24.5,20.7c-5-7.4-10.1-14.7-15.1-22.1ZM3352.4,1378.5l-25.2-20.7c5.1,7.4,10.1,14.8,15.2,22.3l24.7,20.8c-4.9-7.5-9.9-14.9-14.8-22.4ZM3380.3,1401.5l-25.3-20.8c5,7.5,9.9,15,14.9,22.5l24.9,21c-4.8-7.6-9.6-15.1-14.4-22.7ZM3408.3,1424.5l-25.5-21c4.8,7.6,9.7,15.2,14.5,22.8l25,21.1c-4.7-7.6-9.3-15.3-14-22.9ZM3422.8,1436.4l-12.1-10c4.7,7.7,9.4,15.3,14.1,23l17.2,14.5,8,6.7c-4.5-7.7-9.1-15.4-13.6-23.2l-13.5-11.1ZM3449.7,1444.7l-26.3-21.2c4.6,7.8,9.1,15.5,13.7,23.3l25.9,21.3c-4.4-7.8-8.8-15.6-13.2-23.5ZM3478.3,1467.7l-26.5-21.3c4.4,7.9,8.8,15.7,13.3,23.5l26,21.4c-4.3-7.9-8.5-15.8-12.8-23.7ZM3506.9,1490.7l-26.6-21.3c4.3,7.9,8.6,15.8,12.8,23.7l26.1,21.5c-4.1-8-8.3-15.9-12.4-23.9ZM3535.5,1513.7l-26.7-21.4c4.1,8,8.3,16,12.4,24l26.2,21.6c-4-8-7.9-16-11.9-24.1ZM3564.1,1536.7l-26.8-21.5c4,8,8,16.1,11.9,24.1l26.3,21.7c-3.8-8.1-7.7-16.2-11.5-24.3ZM3592.7,1559.7c-8.9-7.2-17.9-14.4-26.8-21.6,3.8,8.1,7.7,16.2,11.5,24.3,8.8,7.2,17.6,14.5,26.4,21.7-3.7-8.2-7.4-16.3-11-24.5ZM3621.4,1582.7l-26.9-21.7c3.7,8.2,7.4,16.4,11.1,24.5,8.8,7.3,17.6,14.5,26.5,21.8-3.5-8.2-7.1-16.4-10.6-24.7ZM3650.1,1605.8c-9-7.2-18-14.5-27-21.7,3.5,8.2,7.1,16.5,10.6,24.7l26.5,21.9c-3.4-8.3-6.7-16.6-10.1-24.9ZM3678.7,1628.9c-9-7.3-18-14.5-27.1-21.8,3.4,8.3,6.7,16.6,10.1,24.9,8.9,7.3,17.7,14.6,26.6,21.9-3.2-8.3-6.4-16.7-9.6-25ZM3707.4,1652.1c-9-7.3-18.1-14.6-27.1-21.9,3.2,8.4,6.4,16.7,9.7,25.1,8.9,7.4,17.8,14.7,26.6,22-3.1-8.4-6.1-16.8-9.2-25.2ZM3736.1,1675.2c-9-7.3-18.1-14.6-27.2-21.9,3.1,8.4,6.1,16.8,9.2,25.3,8.9,7.4,17.8,14.7,26.7,22.1-2.9-8.5-5.8-16.9-8.7-25.4ZM3764.8,1698.4c-9.1-7.3-18.2-14.7-27.3-22,2.9,8.5,5.8,17,8.7,25.4,8.9,7.4,17.9,14.8,26.8,22.1-2.7-8.5-5.5-17-8.2-25.6ZM3793.6,1721.6c-9.1-7.3-18.2-14.7-27.3-22.1,2.7,8.5,5.5,17.1,8.2,25.6,9,7.4,17.9,14.8,26.8,22.2-2.6-8.6-5.2-17.2-7.7-25.7ZM3822.3,1744.8c-9.1-7.4-18.2-14.7-27.3-22.1,2.6,8.6,5.2,17.2,7.7,25.8,9,7.4,17.9,14.8,26.8,22.2-2.4-8.6-4.8-17.3-7.2-25.9ZM3851.1,1768.2c-9.1-7.4-18.3-14.8-27.4-22.2,2.4,8.7,4.8,17.3,7.3,25.9,9,7.5,18,14.9,27,22.4-2.3-8.7-4.5-17.4-6.8-26.1ZM2856.6,966.6l-8.1-6.6c2.4,2.1,4.7,4.2,7.1,6.2,2.7,2.2,5.4,4.5,8.1,6.7l-7.1-6.4ZM2884.5,989.3c-4.4-3.5-8.7-7.1-13.1-10.7,3.8,3.4,7.5,6.8,11.3,10.2l13.1,10.9c-3.8-3.5-7.5-7-11.3-10.4ZM2912.3,1011.8c-5.3-4.3-10.7-8.6-16-13l14,13c5.3,4.4,10.6,8.8,15.9,13.3-4.7-4.4-9.3-8.8-14-13.3ZM2940.3,1034.5l-18.2-14.8c5.2,4.9,10.4,9.9,15.6,14.8,6,5,11.9,9.9,17.9,14.9-5.1-5-10.1-9.9-15.2-14.9ZM2968.3,1057.2c-6.6-5.3-13.2-10.6-19.7-16,5.5,5.4,11,10.7,16.5,16.1,6.5,5.4,12.9,10.7,19.4,16.1-5.4-5.4-10.7-10.8-16.1-16.2ZM2996.4,1079.9l-20.9-16.9c5.7,5.7,11.4,11.4,17,17.1,6.8,5.7,13.6,11.3,20.4,16.9-5.5-5.7-11.1-11.4-16.6-17.2ZM3024.5,1102.6c-7.2-5.9-14.5-11.7-21.7-17.6,5.7,5.9,11.5,11.9,17.2,17.8,7.2,5.9,14.3,11.9,21.5,17.8-5.7-6-11.3-12-17-18ZM3052.6,1125.3c-7.5-6-14.9-12-22.4-18.1,5.8,6.2,11.6,12.4,17.5,18.6,7.4,6.1,14.7,12.2,22.1,18.3-5.7-6.2-11.4-12.5-17.1-18.8ZM3080.7,1148c-7.7-6.2-15.3-12.4-23-18.6,5.8,6.4,11.7,12.8,17.5,19.2l22.7,18.7c-5.7-6.4-11.4-12.9-17.2-19.3ZM3108.9,1170.7c-7.8-6.3-15.7-12.6-23.5-19,5.8,6.6,11.7,13.1,17.5,19.7,7.7,6.4,15.4,12.7,23.1,19.1-5.7-6.6-11.4-13.2-17.1-19.8ZM3137.2,1193.5l-24-19.3c5.8,6.7,11.6,13.4,17.4,20.2l23.5,19.4c-5.6-6.7-11.2-13.5-16.8-20.2ZM3165.5,1216.3c-8.1-6.5-16.2-13-24.3-19.6,5.7,6.8,11.4,13.7,17.1,20.5l23.9,19.7c-5.6-6.9-11.1-13.8-16.7-20.7ZM3193.7,1239l-24.6-19.8c5.6,7,11.2,13.9,16.9,20.9l24.2,20c-5.5-7-11-14-16.5-21ZM3222.1,1261.8l-24.9-20c5.5,7.1,11.1,14.2,16.6,21.2l24.5,20.2c-5.4-7.1-10.8-14.3-16.2-21.4ZM3250.4,1284.6l-25.2-20.3c5.5,7.2,10.9,14.4,16.4,21.6,8.2,6.8,16.5,13.6,24.7,20.3-5.3-7.2-10.6-14.4-15.9-21.7ZM3278.8,1307.5l-25.4-20.4c5.3,7.3,10.7,14.6,16,21.8l24.9,20.6c-5.2-7.3-10.4-14.6-15.5-22ZM3307.2,1330.3l-25.6-20.5c5.2,7.4,10.4,14.7,15.6,22.1,8.4,6.9,16.8,13.8,25.2,20.7-5.1-7.4-10.2-14.8-15.2-22.3ZM3335.7,1353.2l-25.8-20.7c5.1,7.5,10.2,14.9,15.3,22.4l25.3,20.8c-4.9-7.5-9.9-15-14.8-22.5ZM3364.2,1376l-25.9-20.8c5,7.5,9.9,15.1,14.9,22.6l25.5,21c-4.8-7.6-9.6-15.2-14.4-22.8ZM3392.6,1398.9l-26.1-20.9c4.8,7.6,9.7,15.2,14.5,22.9l25.6,21.1c-4.7-7.7-9.4-15.3-14.1-23ZM3404.1,1408.1l-9.2-7.4c4.7,7.7,9.4,15.4,14.1,23.1l14.3,11.8,11.4,9.4c-4.5-7.7-9.1-15.5-13.6-23.2l-17.1-13.7ZM3435.2,1418.9l-27-21.1c4.6,7.8,9.1,15.6,13.7,23.4l26.4,21.2c-4.4-7.8-8.8-15.7-13.2-23.5ZM3464.3,1441.7l-27-21.2c4.4,7.9,8.8,15.7,13.3,23.6l26.6,21.4c-4.3-7.9-8.5-15.8-12.8-23.7ZM3493.4,1464.5l-27.2-21.3c4.3,7.9,8.6,15.9,12.8,23.8l26.7,21.4c-4.1-8-8.2-15.9-12.3-23.9ZM3522.5,1487.4l-27.2-21.4c4.1,8,8.2,16,12.4,24l26.8,21.5c-4-8-8-16.1-11.9-24.1ZM3551.7,1510.3l-27.3-21.5c4,8.1,8,16.1,12,24.2l26.8,21.6c-3.8-8.1-7.6-16.2-11.5-24.3ZM3580.8,1533.2l-27.4-21.5c3.8,8.1,7.7,16.3,11.5,24.4,9,7.2,18,14.4,26.9,21.7-3.7-8.2-7.3-16.3-11-24.5ZM3610,1556.1l-27.5-21.6c3.7,8.2,7.3,16.4,11,24.6,9,7.3,18,14.5,27,21.7-3.5-8.2-7-16.5-10.5-24.7ZM3639.2,1579c-9.2-7.2-18.4-14.4-27.6-21.7,3.5,8.2,7,16.5,10.6,24.7l27.1,21.8c-3.4-8.3-6.7-16.6-10.1-24.9ZM3668.4,1602c-9.2-7.2-18.4-14.5-27.6-21.7,3.4,8.3,6.7,16.6,10.1,24.9,9.1,7.3,18.1,14.6,27.1,21.9-3.2-8.4-6.4-16.7-9.6-25.1ZM3697.6,1625c-9.2-7.3-18.4-14.5-27.7-21.8,3.2,8.4,6.4,16.7,9.6,25.1,9.1,7.3,18.1,14.6,27.2,21.9-3-8.4-6.1-16.8-9.1-25.2ZM3726.9,1648c-9.2-7.3-18.5-14.6-27.7-21.8,3,8.4,6.1,16.9,9.1,25.3,9.1,7.3,18.2,14.7,27.3,22-2.9-8.5-5.8-16.9-8.7-25.4ZM3756.1,1671.1c-9.2-7.3-18.5-14.6-27.8-21.9,2.9,8.5,5.8,17,8.7,25.5,9.1,7.4,18.2,14.7,27.3,22-2.7-8.5-5.5-17.1-8.2-25.6ZM3785.4,1694.1c-9.3-7.3-18.5-14.6-27.8-22,2.7,8.5,5.5,17.1,8.2,25.6,9.1,7.4,18.2,14.7,27.4,22.1-2.6-8.6-5.1-17.2-7.7-25.8ZM3814.6,1717.2c-9.3-7.3-18.6-14.7-27.9-22,2.6,8.6,5.1,17.2,7.7,25.8,9.1,7.4,18.3,14.8,27.4,22.2-2.4-8.6-4.8-17.3-7.2-25.9ZM3843.9,1740.4c-9.3-7.4-18.6-14.7-27.9-22.1,2.4,8.7,4.8,17.3,7.2,26,9.2,7.4,18.4,14.9,27.5,22.3-2.3-8.7-4.5-17.4-6.8-26.1ZM2802.5,920.9c-2.5-2-5.1-4-7.7-6.1l6.8,5.8,7.9,6.5c-2.3-2.1-4.7-4.1-7-6.2ZM2830.9,943.4l-13.1-10.4c3.9,3.5,7.8,6.9,11.8,10.3,4.3,3.5,8.5,6.9,12.8,10.4l-11.4-10.3ZM2859.5,966.1c-5.5-4.3-11-8.7-16.5-13.1,4.7,4.3,9.5,8.5,14.2,12.8l16.1,13.1c-4.6-4.3-9.2-8.5-13.8-12.8ZM2887.9,988.5c-6.2-4.9-12.4-9.8-18.6-14.7,5.3,4.9,10.6,9.8,15.9,14.7,6,4.9,12.1,9.8,18.1,14.7-5.1-4.9-10.3-9.8-15.4-14.7ZM2916.4,1011.1c-6.7-5.3-13.4-10.6-20.1-15.9,5.5,5.3,11.1,10.6,16.6,15.8l19.8,16.1c-5.4-5.3-10.9-10.7-16.3-16ZM2944.9,1033.6c-7-5.5-14-11.1-21.1-16.6,5.7,5.6,11.4,11.2,17.2,16.8,7,5.6,13.9,11.3,20.9,16.9-5.7-5.7-11.3-11.4-17-17.1ZM2973.4,1056.1l-22-17.4c5.9,5.9,11.7,11.8,17.6,17.7,7.2,5.9,14.5,11.7,21.7,17.6-5.8-6-11.5-11.9-17.3-17.9ZM3002,1078.7c-7.6-6-15.2-11.9-22.7-17.9,5.9,6.2,11.9,12.3,17.8,18.4,7.5,6,15,12.1,22.4,18.1-5.8-6.2-11.7-12.4-17.5-18.6ZM3030.7,1101.3c-7.8-6.2-15.6-12.3-23.4-18.5,6,6.4,12,12.7,17.9,19.1,7.7,6.2,15.3,12.3,22.9,18.5-5.8-6.4-11.6-12.8-17.4-19.1ZM3059.4,1123.9c-8-6.3-16-12.6-23.9-18.9,5.9,6.5,11.9,13,17.8,19.5l23.5,19c-5.8-6.5-11.6-13.1-17.3-19.6ZM3088.1,1146.5c-8.1-6.4-16.2-12.7-24.3-19.1,5.9,6.6,11.7,13.3,17.6,19.9,8,6.4,16,12.9,23.9,19.3-5.8-6.7-11.5-13.4-17.3-20.1ZM3116.9,1169.1l-24.7-19.4c5.8,6.8,11.6,13.6,17.5,20.4l24.3,19.6c-5.7-6.8-11.4-13.7-17.1-20.5ZM3145.6,1191.7c-8.3-6.5-16.7-13.1-25-19.6,5.8,6.9,11.5,13.8,17.3,20.7,8.2,6.6,16.4,13.2,24.6,19.8-5.6-7-11.3-13.9-16.9-20.9ZM3174.5,1214.4l-25.4-19.9c5.7,7,11.4,14.1,17.1,21.1l24.9,20c-5.5-7.1-11-14.1-16.5-21.2ZM3203.3,1237l-25.6-20.1c5.6,7.1,11.1,14.3,16.7,21.4,8.4,6.7,16.8,13.5,25.1,20.2-5.4-7.2-10.8-14.3-16.3-21.5ZM3232.2,1259.7l-25.8-20.2c5.5,7.2,10.9,14.5,16.4,21.7,8.5,6.8,16.9,13.6,25.4,20.4-5.3-7.3-10.6-14.6-16-21.8ZM3261.1,1282.4l-26-20.4c5.4,7.3,10.7,14.7,16.1,22l25.6,20.6c-5.2-7.4-10.4-14.7-15.6-22.1ZM3290.1,1305.1l-26.2-20.6c5.2,7.4,10.5,14.8,15.7,22.3,8.6,6.9,17.1,13.8,25.7,20.7-5.1-7.4-10.1-14.9-15.2-22.3ZM3319,1327.8l-26.4-20.7c5.1,7.5,10.2,15,15.3,22.5l25.9,20.8c-5-7.5-9.9-15.1-14.9-22.6ZM3348,1350.6l-26.5-20.8c5,7.6,10,15.1,14.9,22.7l26.1,20.9c-4.8-7.6-9.7-15.2-14.5-22.9ZM3377.1,1373.3l-26.7-20.9c4.8,7.7,9.7,15.3,14.6,23l26.2,21c-4.7-7.7-9.4-15.4-14-23.1ZM3385.4,1379.8l-6.1-4.8c4.7,7.7,9.4,15.4,14.1,23.2l11.3,9.1,15,12.1c-4.6-7.8-9.1-15.5-13.7-23.3l-20.7-16.2ZM4082.9,2601.7l-6-23.6c-3.8-7.5-7.7-15.1-11.5-22.6l6.5,23.4c3.7,7.6,7.4,15.2,11,22.7ZM4090.1,2629.6l-5.9-23.1c-3.6-7.4-7.2-14.8-10.8-22.3l6.4,23c3.5,7.5,6.9,15,10.4,22.4ZM4097.2,2657.5l-5.8-22.5c-3.4-7.3-6.7-14.6-10.1-21.9l6.2,22.4c3.2,7.3,6.5,14.6,9.7,22ZM4104.3,2685.4l-5.6-21.9c-3.1-7.1-6.2-14.2-9.4-21.2l6,21.8c3,7.1,6,14.3,9,21.4ZM4111.4,2712.9c-1.8-7-3.6-13.9-5.4-20.9-2.9-6.8-5.7-13.7-8.6-20.5l5.8,20.9c2.7,6.9,5.5,13.7,8.2,20.5ZM4118.4,2740.3c-1.7-6.6-3.4-13.2-5-19.7-2.6-6.5-5.1-12.9-7.7-19.4l5.4,19.7c2.4,6.5,4.9,12.9,7.3,19.4ZM4125.2,2767c-1.5-6-3-11.9-4.6-17.9-2.2-5.9-4.5-11.8-6.7-17.8l5,18c2.1,5.9,4.2,11.8,6.3,17.7ZM4131.9,2793.1l-3.9-15.4c-1.8-5.1-3.6-10.1-5.4-15.2l4.2,15.4c1.7,5.1,3.4,10.1,5.1,15.2ZM4138.1,2817.4l-2.8-11c-1.2-3.7-2.5-7.4-3.7-11.1l3,11.1c1.2,3.7,2.3,7.3,3.5,11ZM4143.1,2837.3l-.6-2.4-.7-2.2.7,2.5.6,2ZM3879.4,1789.8c-2.1-8.8-4.2-17.5-6.3-26.3-9.3-7.4-18.6-14.7-28-22.1,2.2,8.7,4.5,17.4,6.8,26.2,9.2,7.4,18.3,14.9,27.5,22.3ZM3886.1,1817.7c-2.1-8.8-4.2-17.5-6.3-26.3-9.1-7.4-18.3-14.8-27.4-22.2,2.3,8.7,4.5,17.4,6.8,26.1,9,7.5,18,14.9,26.9,22.4ZM3892.7,1845.5c-2.1-8.7-4.2-17.5-6.3-26.2-8.9-7.4-17.9-14.9-26.9-22.3,2.3,8.7,4.5,17.4,6.8,26.1,8.8,7.5,17.6,15,26.4,22.5ZM3899.4,1873.4c-2.1-8.7-4.2-17.5-6.3-26.2-8.8-7.5-17.6-15-26.4-22.4,2.3,8.7,4.5,17.4,6.8,26.1,8.6,7.5,17.2,15.1,25.8,22.6ZM3906.2,1901.3c-2.1-8.7-4.3-17.5-6.4-26.2-8.6-7.5-17.2-15-25.8-22.5,2.3,8.7,4.6,17.4,6.9,26.1,8.4,7.6,16.9,15.1,25.3,22.7ZM3913,1929.2c-2.1-8.7-4.3-17.4-6.4-26.2-8.4-7.5-16.8-15.1-25.3-22.6,2.3,8.7,4.6,17.4,6.9,26,8.3,7.6,16.5,15.2,24.8,22.8ZM3919.8,1957c-2.1-8.7-4.2-17.4-6.4-26.1-8.2-7.6-16.5-15.1-24.7-22.7,2.3,8.7,4.6,17.3,6.9,26,8.1,7.6,16.2,15.2,24.2,22.9ZM3926.7,1985c-2.1-8.7-4.3-17.4-6.4-26.1-8-7.6-16.1-15.2-24.2-22.8,2.3,8.7,4.6,17.3,6.9,26,7.9,7.7,15.8,15.3,23.7,22.9ZM3933.6,2012.9c-2.2-8.7-4.3-17.4-6.5-26.1-7.9-7.6-15.7-15.2-23.6-22.9,2.3,8.7,4.6,17.3,6.9,26,7.7,7.7,15.4,15.4,23.1,23ZM3940.5,2040.8c-2.1-8.7-4.3-17.4-6.4-26.1-7.7-7.7-15.4-15.3-23.1-23,2.3,8.6,4.6,17.3,6.9,25.9,7.6,7.7,15.1,15.4,22.6,23.1ZM3947.4,2068.7c-2.1-8.6-4.3-17.3-6.4-26-7.5-7.7-15-15.4-22.5-23.1,2.3,8.6,4.6,17.3,6.9,25.9,7.4,7.7,14.7,15.5,22,23.2ZM3954.4,2096.7c-2.2-8.7-4.4-17.3-6.5-26-7.3-7.7-14.6-15.4-22-23.1,2.3,8.7,4.7,17.3,7,25.9,7.2,7.8,14.3,15.5,21.5,23.3ZM3961.4,2124.7c-2.2-8.7-4.3-17.3-6.5-26-7.1-7.7-14.3-15.5-21.4-23.2,2.3,8.6,4.7,17.2,7,25.8,7,7.8,14,15.6,20.9,23.3ZM3968.4,2152.7c-2.2-8.6-4.3-17.3-6.5-25.9-6.9-7.7-13.9-15.5-20.9-23.3,2.3,8.6,4.6,17.2,7,25.7,6.8,7.8,13.6,15.6,20.4,23.4ZM3975.4,2180.7c-2.2-8.6-4.3-17.2-6.5-25.9-6.8-7.8-13.5-15.5-20.3-23.3,2.3,8.6,4.7,17.2,7,25.7,6.6,7.8,13.2,15.6,19.8,23.4ZM3982.5,2208.7c-2.2-8.6-4.4-17.2-6.5-25.8-6.6-7.8-13.2-15.6-19.7-23.4,2.3,8.6,4.7,17.1,7,25.7,6.4,7.8,12.9,15.7,19.3,23.5ZM3989.6,2236.7c-2.2-8.6-4.3-17.2-6.5-25.7-6.4-7.8-12.8-15.6-19.2-23.4,2.3,8.5,4.7,17.1,7,25.6,6.2,7.9,12.5,15.7,18.7,23.6ZM3996.7,2264.7c-2.2-8.5-4.3-17.1-6.5-25.6-6.2-7.8-12.4-15.6-18.6-23.5,2.3,8.5,4.6,17,7,25.5,6.1,7.9,12.1,15.8,18.1,23.6ZM4003.8,2292.8c-2.2-8.6-4.4-17.1-6.5-25.6-6-7.8-12-15.7-18.1-23.5,2.3,8.5,4.7,17,7,25.5,5.9,7.9,11.7,15.8,17.6,23.6ZM4011,2320.9c-2.2-8.5-4.3-17-6.5-25.5-5.8-7.8-11.7-15.7-17.5-23.5,2.3,8.5,4.7,16.9,7,25.4,5.7,7.9,11.4,15.8,17,23.7ZM4018.1,2349c-2.2-8.5-4.3-16.9-6.5-25.4-5.6-7.8-11.3-15.7-16.9-23.5,2.3,8.4,4.6,16.9,7,25.3,5.5,7.9,11,15.8,16.4,23.7ZM4025.3,2377c-2.2-8.4-4.3-16.9-6.5-25.3-5.4-7.8-10.9-15.7-16.4-23.5,2.3,8.4,4.6,16.8,6.9,25.2,5.3,7.9,10.6,15.8,15.9,23.7ZM4032.5,2405.1c-2.2-8.4-4.3-16.8-6.5-25.2-5.2-7.8-10.5-15.7-15.8-23.5,2.3,8.4,4.6,16.7,6.9,25.1,5.1,7.9,10.2,15.8,15.3,23.6ZM4039.7,2433.2l-6.4-25c-5.1-7.8-10.1-15.6-15.2-23.5l6.9,24.9c4.9,7.9,9.8,15.8,14.7,23.6ZM4046.9,2461.3c-2.1-8.3-4.2-16.6-6.4-24.9-4.9-7.8-9.7-15.6-14.6-23.4,2.3,8.2,4.6,16.5,6.8,24.7,4.7,7.9,9.4,15.7,14.1,23.6ZM4054.1,2489.4c-2.1-8.3-4.2-16.4-6.3-24.7-4.7-7.8-9.3-15.6-14-23.3,2.3,8.2,4.5,16.4,6.8,24.6,4.5,7.8,9,15.7,13.5,23.5ZM4061.3,2517.5l-6.3-24.5c-4.5-7.7-8.9-15.5-13.4-23.2l6.7,24.4c4.3,7.8,8.6,15.6,12.9,23.4ZM4068.5,2545.6l-6.2-24.2c-4.2-7.7-8.5-15.4-12.8-23.1l6.7,24.1c4.1,7.8,8.2,15.5,12.3,23.2ZM4073,2563l-3.4-13.3c-4-7.6-8.1-15.3-12.1-22.9l1.8,6.5,4.8,17.3c3.9,7.7,7.8,15.4,11.7,23l-2.7-10.6ZM3586.6,0c30.2,571.8,148.4,1176.2,287.4,1763,439.9,348.4,834.8,671.3,1126,949.7v1.4c-291-278.3-685.7-601.1-1125.6-949.4,2.1,8.8,4.2,17.5,6.3,26.3,439.3,356.4,832.8,686.2,1119.3,969.3v1.4c-286.3-283-679.7-612.7-1118.9-969.1,2.1,8.8,4.2,17.5,6.3,26.3,438.9,364.8,831,701.9,1112.6,989.9v1.4c-281.4-287.9-673.4-624.9-1112.2-989.7,2.1,8.7,4.2,17.5,6.3,26.2,438.6,373.7,829.4,718.4,1106,1011.4v1.4c-276.3-292.9-667.1-637.5-1105.6-1011.2,2.1,8.7,4.2,17.5,6.3,26.2,438.4,383.1,828.1,735.8,1099.3,1034v1.5c-270.9-298-660.5-650.7-1098.9-1033.8,2.1,8.8,4.3,17.5,6.4,26.3,417.4,374.1,789.6,719.4,1053.4,1013.5h-1.3c-263.4-293.7-635-638.4-1051.6-1011.8,2.1,8.7,4.2,17.5,6.4,26.2,393.7,362.1,746.3,697.3,1001.9,985.6h-1.3c-255.3-287.8-607.2-622.4-1000.1-983.9,2.1,8.7,4.2,17.5,6.4,26.2,371,350.3,704.6,675.5,951.6,957.7h-1.3c-246.7-281.7-579.6-606.3-949.9-955.9,2.1,8.7,4.3,17.5,6.4,26.2,349.2,338.6,664.4,653.9,902.5,929.7h-1.3c-237.7-275.4-552.3-590-900.7-927.9,2.1,8.7,4.3,17.4,6.5,26.2,328.2,327,625.7,632.4,854.6,901.7h-1.3c-228.5-268.8-525.3-573.6-852.8-899.9,2.2,8.7,4.3,17.4,6.5,26.1,308.2,315.6,588.5,611.1,807.9,873.8h-1.3c-219-262.1-498.7-557-806.2-871.9,2.2,8.7,4.3,17.4,6.4,26.1,288.9,304.3,552.8,590,762.6,845.8h-1.3c-209.4-255.2-472.6-540.3-760.8-843.8,2.2,8.7,4.4,17.4,6.5,26.1,270.5,293.1,518.3,569,718.5,817.7h-1.3c-199.7-248.1-447-523.4-716.7-815.7,2.2,8.7,4.3,17.4,6.5,26,252.8,282,485.3,548.2,675.7,789.7h-1.3c-190-240.9-421.8-506.4-673.9-787.6,2.2,8.6,4.3,17.3,6.5,26,235.9,271,453.5,527.5,634.3,761.7h-1.3c-180.3-233.5-397.3-489.3-632.5-759.5,2.2,8.7,4.4,17.3,6.5,25.9,219.6,260.2,423.1,507,594.1,733.6h-1.2c-170.6-226-373.3-472-592.3-731.4,2.2,8.7,4.4,17.3,6.5,25.9,204.1,249.3,393.8,486.5,555.2,705.5h-1.2c-160.9-218.3-350-454.7-553.4-703.2,2.2,8.6,4.4,17.2,6.5,25.8,189.3,238.6,365.8,466.2,517.7,677.4h-1.2c-151.4-210.5-327.2-437.2-515.8-675,2.2,8.6,4.3,17.2,6.5,25.7,175.2,228,339,446,481.5,649.3h-1.2c-142-202.6-305.2-419.7-479.6-646.8,2.2,8.6,4.4,17.1,6.6,25.7,161.6,217.5,313.3,425.8,446.5,621.1h-1.2c-132.7-194.5-283.7-402-444.7-618.5,2.2,8.6,4.4,17.1,6.5,25.6,148.7,207,288.7,405.7,412.9,592.9h-1.2c-123.7-186.3-263-384.2-411.1-590.2,2.2,8.5,4.3,17,6.5,25.5,136.5,196.6,265.3,385.8,380.6,564.7h-1.2c-114.8-178.1-243-366.3-378.8-561.9l6.5,25.5c124.8,186.3,243,365.9,349.7,536.5h-1.2c-106.1-169.7-223.7-348.4-347.7-533.6,2.2,8.5,4.3,16.9,6.5,25.4,113.7,176,221.7,346,320,508.2h-1.2c-97.7-161.2-205-330.3-318-505.2l6.5,25.2c103.2,165.8,201.4,326.3,291.6,480h-1.2c-89.6-152.7-187.2-312.1-289.6-476.7,2.1,8.3,4.3,16.7,6.4,25.1,93.2,155.6,182.2,306.6,264.5,451.7h-1.1c-81.7-144-170-293.9-262.5-448.3,2.1,8.3,4.3,16.6,6.4,24.9,83.7,145.5,164,287,238.7,423.4h-1.1c-74.1-135.3-153.6-275.5-236.6-419.7l6.4,24.7c74.8,135.4,146.7,267.4,214.1,395h-1.1c-66.7-126.4-137.9-257.1-212-391.2l6.3,24.5c66.4,125.4,130.5,247.8,190.8,366.6h-1.1c-59.7-117.5-123-238.6-188.6-362.5l2.4,9.3,3.8,15c58.5,115.4,115.1,228.3,168.8,338.3h-1.1c-53-108.5-108.8-219.9-166.5-333.8l6.1,24c51.1,105.5,100.7,208.9,148,309.8h-1.1c-46.6-99.4-95.3-201.2-145.6-305l6.1,23.6c44.2,95.6,87.2,189.5,128.4,281.4h-1.1c-40.5-90.2-82.6-182.3-126-276l5.9,23.1c37.8,85.7,74.6,170.1,110.1,252.9h-1.1c-34.7-80.9-70.6-163.3-107.5-247l5.8,22.7c31.8,75.9,62.9,150.7,93,224.3h-1.1c-29.2-71.5-59.4-144.1-90.2-217.7l5.6,21.9c26.3,66.1,52,131.4,77.1,195.8h-1.1c-24.1-61.9-48.8-124.7-74-188.2,1.8,7,3.6,14,5.4,21,21.2,56.3,42,112.1,62.4,167.2h-1.1c-19.3-52.2-39-105-59-158.3,1.7,6.6,3.4,13.1,5,19.7,16.5,46.6,32.8,92.8,48.8,138.6h-1.1c-14.8-42.3-29.8-84.9-45.1-127.9,1.5,6,3.1,12,4.6,18,12.3,36.9,24.5,73.5,36.5,109.9h-1.1c-10.6-32-21.3-64.2-32.1-96.6l3.9,15.3c8.5,27.2,17,54.3,25.4,81.3h-1.1c-6.5-21.1-13.1-42.2-19.8-63.4.9,3.7,1.9,7.3,2.8,11,5.1,17.5,10.2,35,15.3,52.4h-1l-7.5-25.9.4,1.8,6.6,24.1h-1.5l-6.1-24c-5.1-18.7-10.2-37.5-15.4-56.3-5.6-19.1-11.3-38.3-16.9-57.6-5.9-18.7-11.8-37.4-17.7-56.2-6.3-18.7-12.6-37.5-19-56.3-6.7-18.6-13.3-37.3-20-56-7-18.4-14-36.8-21-55.3-7.4-18.4-14.8-36.9-22.3-55.5-7.7-18.2-15.4-36.4-23.2-54.7-8.1-18.1-16.2-36.3-24.3-54.5-8.4-18-16.9-36.1-25.4-54.2-8.8-17.9-17.6-35.8-26.4-53.7-9.2-17.8-18.3-35.7-27.5-53.6l-24.5-45.8-3.9-7.4-12.1-21.7-17.4-31.2-30.6-52.5c-10.5-17.4-21.1-34.8-31.7-52.3-10.9-17.3-21.7-34.6-32.6-51.9-11.2-17.2-22.4-34.4-33.7-51.6-11.6-17.1-23.2-34.3-34.8-51.4-11.8-16.9-23.7-33.8-35.6-50.8-12.3-17-24.6-34-37-51-12.5-16.7-25-33.4-37.6-50.1-13-16.7-26-33.5-39-50.3-13.2-16.5-26.4-33.1-39.7-49.7-13.5-16.4-27-32.8-40.5-49.2-14.1-16.6-28.2-33.2-42.3-49.8-14.1-16.2-28.3-32.3-42.4-48.5-14.5-16.1-29.1-32.3-43.6-48.5-15.1-16.3-30.2-32.6-45.2-48.9-15-15.8-30.1-31.6-45.1-47.4-15.6-15.9-31.2-31.9-46.8-47.9-16.1-16-32.1-32-48.2-48-16-15.5-32-31-48-46.6-16.5-15.6-33.1-31.2-49.6-46.9-17.1-15.8-34.2-31.5-51.4-47.3-16.9-15.2-33.8-30.4-50.7-45.6-17.4-15.2-34.8-30.5-52.2-45.8-18.3-15.6-36.5-31.2-54.8-46.9-17.9-14.9-35.7-29.8-53.6-44.8-18.1-14.8-36.2-29.6-54.3-44.4C2365.1,572.5,2013.4,285.1,1688,0h1.5c306.2,268.2,635.6,538.5,968.2,804.4C2333.5,538.3,2012.9,268,1715.8,0h1.5c313.7,283,653.5,568.4,996.3,848.7C2379.4,568.2,2049,282.8,1744.7,0h1.4c314,291.7,655.7,586.2,1000.6,875.2l7.9,6.3C2416,590.2,2081.2,293.6,1774.7,0h1.4c312.3,299,653.9,601.2,998.9,897.7,4.4,3.5,8.9,7.1,13.3,10.6C2448.2,608.2,2111.9,302.4,1805.7,0h1.4c310.2,306.3,651.3,616.2,996,920.1,5.5,4.4,11,8.7,16.5,13.1C2479.1,624.8,2142.6,310.5,1837.9,0h1.4c307.9,313.7,648.1,631.3,992.2,942.7,6.2,4.9,12.5,9.9,18.7,14.8C2509.8,641.1,2173.8,318.4,1871.2,0h1.4c305.2,321.1,644.3,646.4,987.6,965.3,6.7,5.3,13.3,10.5,20,15.8C2540.4,656.9,2205.4,326.1,1905.4,0h1.4c302.1,328.4,639.7,661.4,981.7,987.8l21.2,16.7C2571.2,672.5,2237.6,333.7,1940.7,0h1.3c298.7,335.7,634.5,676.5,975,1010.4,7.3,5.8,14.6,11.6,21.9,17.3C2602.1,688,2270.4,341.2,1977,0h1.3c294.9,343,628.5,691.5,967.2,1032.8,7.6,6,15.1,11.9,22.7,17.9C2633.2,703.4,2303.8,348.7,2014.3,0h1.3c290.8,350.2,621.9,706.6,958.5,1055.4,7.8,6.1,15.6,12.3,23.4,18.4C2664.7,718.8,2337.8,356.2,2052.6,0h1.3c286.4,357.5,614.7,721.6,948.8,1077.9,8,6.3,15.9,12.6,23.9,18.8C2696.4,734.1,2372.5,363.5,2091.8,0h1.3c281.7,364.8,606.9,736.7,938.3,1100.6,8.1,6.4,16.2,12.8,24.3,19.2C2728.4,749.4,2407.7,370.9,2132,0h1.2c276.6,372.1,598.5,751.8,926.9,1123.2,8.2,6.5,16.4,12.9,24.6,19.4C2760.7,764.7,2443.6,378.3,2173.1,0h1.2c271.3,379.3,589.5,766.8,914.5,1145.8,8.3,6.6,16.7,13.1,25,19.6C2793.2,779.9,2480,385.6,2215.1,0h1.2c265.6,386.6,579.8,781.9,901.3,1168.4,8.4,6.6,16.9,13.3,25.3,19.9C2826.1,795.1,2517,392.9,2258,0h1.2c259.7,393.8,569.6,797,887.2,1191l25.6,20.1C2859.3,810.3,2554.7,400.2,2301.8,0h1.2c253.5,401,558.9,812.1,872.3,1213.7l25.8,20.3C2892.7,825.5,2592.9,407.4,2346.4,0h1.2c247,408.2,547.5,827.2,856.5,1236.3,8.7,6.8,17.3,13.6,26,20.4C2926.4,840.7,2631.7,414.7,2391.9,0h1.2c240.2,415.4,535.6,842.3,839.8,1259l26.2,20.6C2960.4,855.9,2671,421.9,2438.3,0h1.1c233.2,422.6,523.2,857.4,822.4,1281.7l26.4,20.7C2994.7,871.1,2710.9,429.2,2485.5,0h1.1c225.8,429.8,510.2,872.5,804.2,1304.4l26.5,20.8C3029.2,886.3,2751.4,436.4,2533.5,0h1.1c218.3,437,496.7,887.6,785.2,1327.1l26.7,20.9C3064.1,901.4,2792.4,443.6,2582.3,0h1.1c210.4,444.2,482.6,902.7,765.4,1349.9l26.8,21C3099.2,916.6,2833.9,450.8,2631.9,0h1.1c202.3,451.4,468,917.8,744.8,1372.6l8.2,6.4,18.7,14.7C3134.5,931.8,2876,458,2682.3,0h1.1c194,458.5,453,932.9,723.5,1395.4l27.1,21.2C3170.2,947,2918.6,465.1,2733.4,0h1.1c185.4,465.7,437.4,948.1,701.5,1418.2l27.1,21.3C3206.1,962.2,2961.7,472.3,2785.3,0h1.1c176.6,472.8,421.3,963.2,678.6,1441l27.3,21.4C3242.2,977.4,3005.3,479.4,2838,0h1.1c167.5,479.9,404.8,978.4,655.2,1463.9l27.3,21.4C3278.6,992.6,3049.4,486.6,2891.4,0h1.1c158.2,487,387.8,993.5,630.9,1486.7l27.4,21.5C3315.3,1007.8,3094,493.7,2945.5,0h1c148.7,494.1,370.3,1008.7,605.9,1509.6,9.2,7.2,18.3,14.4,27.5,21.6C3352.2,1023,3139.1,500.8,3000.3,0h1c139,501.2,352.3,1023.9,580.3,1532.5,9.2,7.2,18.4,14.4,27.6,21.6C3389.3,1038.2,3184.8,507.9,3055.8,0h1c129,508.3,333.9,1039.1,554,1555.5l27.6,21.7c-198.4-490.9-383-994.6-503.1-1479.9-8.1-32.5-15.8-65-23.3-97.3h1c7.4,32.3,15.2,64.6,23.2,97.1,120.3,485.8,305.1,990,503.7,1481.3,9.2,7.3,18.5,14.5,27.7,21.8-172.4-450.6-333-912-444-1360.1-19.9-80.5-38.3-160.6-54.8-240.1h1c16.5,79.4,34.8,159.4,54.7,239.9,111.1,448.6,271.9,910.5,444.6,1361.5,9.3,7.3,18.5,14.6,27.7,21.8-146.6-406-283.7-820.7-384.2-1226.7-33-133.3-62.1-265.7-86.2-396.5h1c24.2,130.8,53.2,263.1,86.2,396.3,100.6,406.4,237.9,821.6,384.7,1228.1,9.3,7.3,18.6,14.6,27.8,21.9-121.1-356.1-234.7-718.9-323.3-1076.7-47.5-191.9-87.8-382.4-118.2-569.6h1c30.4,187.1,70.6,377.5,118.1,569.3,88.7,358.2,202.5,721.5,323.8,1078.1,9.3,7.3,18.6,14.6,27.8,21.9-95.6-299.6-185.8-604-260.7-906.1-63.7-257.5-116.2-513.3-151.2-763.3h1c35,249.9,87.5,505.7,151.2,763,74.9,302.6,165.4,607.4,261.1,907.4,9.3,7.4,18.6,14.7,27.9,22-69.9-234.4-136.5-471.6-195.1-708.4-82.2-331.9-148.7-662.9-186.5-984h1c37.9,321.1,104.3,652,186.5,983.8,58.7,237.3,125.5,474.9,195.5,709.8,9.3,7.4,18.7,14.7,27.9,22.1-43.4-156.6-85.4-314.4-124.6-472.6-103.6-418.3-187.3-838.6-226.1-1243h1c38.8,404.4,122.6,824.6,226.1,1242.8,39.3,158.6,81.4,316.9,124.9,473.9,9.3,7.4,18.7,14.8,28,22.1C3694.8,1160.2,3566.2,564.5,3524.2,0h1c42,564.8,170.7,1160.9,319.5,1739.8,9.4,7.4,18.7,14.8,28,22.2C3733.9,1175.5,3615.9,571.5,3585.6,0h1Z"/>
    </clipPath>
    <linearGradient id="linear-gradient" x1="1692.1" y1="-613.5" x2="4840.7" y2="3334.8" gradientUnits="userSpaceOnUse">
      <stop offset="0" stop-color="#810cf5"/>
      <stop offset=".5" stop-color="#f06"/>
      <stop offset="1" stop-color="#850aff"/>
    </linearGradient>
  </defs>
  <g class="st2">
    <rect class="st1" x="1688" width="3312" height="2916"/>
  </g>
</svg>