<?xml version="1.0" encoding="UTF-8"?>
<!DOCTYPE svg PUBLIC "-//W3C//DTD SVG 1.1//EN" "http://www.w3.org/Graphics/SVG/1.1/DTD/svg11.dtd">
<!-- Creator: CorelDRAW -->
<svg xmlns="http://www.w3.org/2000/svg" xml:space="preserve" width="17.1234mm" height="21.1257mm" version="1.1" style="shape-rendering:geometricPrecision; text-rendering:geometricPrecision; image-rendering:optimizeQuality; fill-rule:evenodd; clip-rule:evenodd"
viewBox="0 0 61.41 75.76"
 xmlns:xlink="http://www.w3.org/1999/xlink"
 xmlns:xodm="http://www.corel.com/coreldraw/odm/2003">
 <defs>
  <style type="text/css">
   <![CDATA[
    .fil0 {fill:#FEFEFE}
   ]]>
  </style>
 </defs>
 <g id="Layer_x0020_1">
  <metadata id="CorelCorpID_0Corel-Layer"/>
  <path class="fil0" d="M27.77 13.74c0.03,-1.26 0.03,-2.4 0.03,-3.57 -3.49,0.31 -6.34,-0.72 -8.53,-3.65 2.68,-0.3 5.23,-0.4 7.8,0.26 -1.11,-1.18 -1.28,-2.48 -0.22,-3.66 1.02,-1.14 2.34,-2.05 3.54,-3.04 0.12,-0.11 0.47,-0.1 0.66,-0 1.35,0.85 2.68,1.78 3.6,3.14 0.81,1.21 0.76,2.19 -0.04,3.28 2.36,-0 4.78,0.01 7.21,0.01 -0.65,2.27 -4.74,4.02 -8.36,3.62 0.02,1.17 -0.01,2.33 -0.01,3.62 0.33,-0.01 0.66,0.01 0.99,0.01 5.23,0 10.44,-0.02 15.66,0.05 0.94,0.01 1.29,-0.37 1.43,-1.2 -3.14,0.03 -5.79,-1 -7.73,-3.73 3.01,-0.39 5.88,-0.43 8.77,0.58 -0.69,-1.57 -0.5,-2.72 0.91,-3.66 1.07,-0.75 2.3,-1.27 3.53,-1.74 1.37,-0.51 2.84,-0.84 4.41,-1.29 -0.57,1.19 -1.08,2.25 -1.59,3.33 -2.75,6.03 -5.48,12.06 -8.19,18.09 -0.27,0.57 -0.56,0.79 -1.19,0.79 -13.38,-0.05 -26.71,-0.07 -40.09,-0.09 -0.59,0.01 -0.84,-0.17 -1.08,-0.72 -3.05,-7.01 -6.1,-14.01 -9.15,-21.03 -0.04,-0.09 -0.08,-0.19 -0.13,-0.41 0.48,0.13 0.95,0.23 1.38,0.37 1.76,0.57 3.53,1.08 5.23,1.78 0.77,0.33 1.52,0.97 2.04,1.65 0.82,1.1 0.73,1.77 -0.14,2.93 2.93,-1.09 5.85,-1.04 8.94,-0.62 -2,2.75 -4.68,3.73 -7.79,3.67 0.27,1.18 0.29,1.2 1.46,1.2 5.23,0 10.41,0.03 15.64,0.04 0.35,-0 0.7,0 1.01,-0.01z"/>
  <path class="fil0" d="M4.8 75.66c-0.46,-0.12 -0.46,-0.46 -0.47,-0.85 0.08,-6.38 0.15,-12.77 0.22,-19.17 0.04,-3.98 0.06,-7.95 0.1,-12.17 0.73,0.74 1.32,1.35 1.89,1.97 1.59,1.64 3.13,3.27 4.74,4.9 0.4,0.39 0.51,0.8 0.54,1.4 -0.09,3.64 -0.1,7.3 -0.1,10.95 -0.01,0.24 0.14,0.6 0.34,0.73 2.69,1.91 5.43,3.79 8.18,5.7 1.95,-1.29 3.89,-2.6 5.85,-3.88 0.06,-0.06 0.12,-0.12 0.18,-0.15 1.79,-0.66 2.24,-1.99 2.06,-3.73 -0.12,-1.06 -0.02,-2.13 -0.07,-3.18 -0.01,-0.4 -0.14,-0.91 -0.43,-1.18 -2.1,-2.26 -4.24,-4.45 -6.4,-6.68 -0.1,-0.08 -0.13,-0.19 -0.29,-0.37 6.01,0.01 11.92,0.02 18.02,0.03 -0.88,0.87 -1.63,1.67 -2.39,2.44 -1.53,1.57 -3.1,3.14 -4.66,4.72 -0.2,0.19 -0.36,0.53 -0.37,0.81 -0.06,1.78 -0.09,3.56 -0.07,5.32 -0.01,0.26 0.18,0.63 0.41,0.76 2.31,1.6 4.66,3.17 6.97,4.75 0.39,0.28 0.68,0.33 1.11,0.03 2.55,-1.79 5.14,-3.54 7.71,-5.34 0.22,-0.13 0.38,-0.5 0.41,-0.77 0.05,-2.93 0.07,-5.87 0.11,-8.81 0.02,-0.84 -0.04,-1.7 -0.01,-2.54 0.03,-0.24 0.19,-0.52 0.35,-0.7 2.27,-2.31 4.54,-4.61 6.93,-7.03 -0.13,10.72 -0.22,21.29 -0.31,31.94 -0.55,0.05 -1.14,0.12 -1.7,0.2 -16.28,-0.04 -32.55,-0.08 -48.85,-0.1z"/>
  <path class="fil0" d="M9.01 30.67c4.88,0.88 9.79,1.75 14.81,2.64 -0.45,2.81 -0.91,5.56 -1.4,8.56 -0.37,-0.92 -0.65,-1.63 -0.95,-2.33 -0.01,-0.07 -0.03,-0.15 -0.07,-0.22 -0.99,-3.23 -0.99,-3.24 -4.04,-4.64 -2.63,-1.22 -5.26,-2.37 -7.89,-3.57 -0.19,-0.09 -0.35,-0.22 -0.5,-0.31 -0,-0.04 0.02,-0.09 0.04,-0.12z"/>
  <path class="fil0" d="M37.91 41.68c-0.37,-2.75 -0.77,-5.51 -1.18,-8.34 5.01,-0.87 9.94,-1.73 14.87,-2.59 0.04,0.04 0.04,0.09 0.06,0.13 -0.63,0.29 -1.2,0.6 -1.85,0.87 -2.89,1.29 -5.78,2.6 -8.7,3.84 -0.63,0.26 -0.87,0.67 -1.08,1.24 -0.64,1.62 -1.31,3.23 -1.96,4.84 -0.04,0 -0.08,0.01 -0.16,-0z"/>
 </g>
</svg>
